<svg width="46" height="46" viewBox="0 0 46 46" fill="none" xmlns="http://www.w3.org/2000/svg">
<g clip-path="url(#clip0)">
<path d="M23 46C35.7025 46 46 35.7025 46 23C46 10.2975 35.7025 0 23 0C10.2975 0 0 10.2975 0 23C0 35.7025 10.2975 46 23 46Z" fill="#FFD93B"/>
<path d="M45.9998 23C45.9998 35.7075 35.7001 46 22.9998 46C15.7691 46 9.31477 42.665 5.0957 37.4397C9.04164 40.6309 14.0657 42.5356 19.5354 42.5356C32.2357 42.5356 42.5354 32.2431 42.5354 19.5356C42.5354 14.0659 40.6307 9.04188 37.4395 5.09595C42.6576 9.31501 45.9998 15.7694 45.9998 23Z" fill="#F4C534"/>
<path d="M33.2925 30.9423C33.2925 31.6337 32.7333 32.1929 32.0419 32.1929H13.9567C13.2724 32.1929 12.7061 31.6337 12.7061 30.9423C12.7061 30.2508 13.2724 29.6917 13.9567 29.6917H32.0419C32.7348 29.6931 33.2925 30.2508 33.2925 30.9423Z" fill="#3E4347"/>
<path d="M15.679 22.0325C17.5716 22.0325 19.106 20.4981 19.106 18.6055C19.106 16.7128 17.5716 15.1785 15.679 15.1785C13.7863 15.1785 12.252 16.7128 12.252 18.6055C12.252 20.4981 13.7863 22.0325 15.679 22.0325Z" fill="#3E4347"/>
<path d="M17.5976 16.8582C17.3009 16.4594 16.8513 16.2918 16.5933 16.4838C16.3354 16.6757 16.3668 17.1546 16.6635 17.5533C16.9602 17.952 17.4098 18.1197 17.6678 17.9277C17.9257 17.7357 17.8943 17.2569 17.5976 16.8582Z" fill="#5A5F63"/>
<path d="M30.3171 22.0325C32.2098 22.0325 33.7441 20.4981 33.7441 18.6055C33.7441 16.7128 32.2098 15.1785 30.3171 15.1785C28.4245 15.1785 26.8901 16.7128 26.8901 18.6055C26.8901 20.4981 28.4245 22.0325 30.3171 22.0325Z" fill="#3E4347"/>
<path d="M32.2347 16.8617C31.938 16.463 31.4884 16.2954 31.2305 16.4874C30.9725 16.6793 31.004 17.1581 31.3007 17.5568C31.5974 17.9555 32.047 18.1231 32.3049 17.9311C32.5629 17.7392 32.5314 17.2604 32.2347 16.8617Z" fill="#5A5F63"/>
</g>
<defs>
<clipPath id="clip0">
<rect width="46" height="46" fill="white"/>
</clipPath>
</defs>
</svg>
