<svg width="46" height="46" viewBox="0 0 46 46" fill="none" xmlns="http://www.w3.org/2000/svg">
<g clip-path="url(#clip0)">
<path d="M23 46C35.7025 46 46 35.7025 46 23C46 10.2975 35.7025 0 23 0C10.2975 0 0 10.2975 0 23C0 35.7025 10.2975 46 23 46Z" fill="#FFD93B"/>
<path d="M45.9998 23C45.9998 35.7075 35.7001 46 22.9998 46C15.7691 46 9.31477 42.665 5.0957 37.4397C9.04164 40.6309 14.0657 42.5356 19.5354 42.5356C32.2357 42.5356 42.5354 32.2431 42.5354 19.5356C42.5354 14.0659 40.6307 9.04188 37.4395 5.09595C42.6576 9.31501 45.9998 15.7694 45.9998 23Z" fill="#F4C534"/>
<path d="M31.4611 23.8782C33.4546 23.8782 35.0707 22.2621 35.0707 20.2686C35.0707 18.2751 33.4546 16.6591 31.4611 16.6591C29.4676 16.6591 27.8516 18.2751 27.8516 20.2686C27.8516 22.2621 29.4676 23.8782 31.4611 23.8782Z" fill="#3E4347"/>
<path d="M32.7716 18.023C32.22 17.7784 31.6446 17.8696 31.4862 18.2266C31.3279 18.5837 31.6466 19.0714 32.1981 19.316C32.7497 19.5606 33.3251 19.4695 33.4835 19.1124C33.6418 18.7554 33.3231 18.2676 32.7716 18.023Z" fill="#5A5F63"/>
<path d="M14.5388 23.8782C16.5323 23.8782 18.1483 22.2621 18.1483 20.2686C18.1483 18.2751 16.5323 16.6591 14.5388 16.6591C12.5453 16.6591 10.9292 18.2751 10.9292 20.2686C10.9292 22.2621 12.5453 23.8782 14.5388 23.8782Z" fill="#3E4347"/>
<path d="M15.8482 18.0225C15.2967 17.7779 14.7212 17.8691 14.5628 18.2261C14.4045 18.5832 14.7232 19.0709 15.2748 19.3155C15.8263 19.5601 16.4018 19.469 16.5602 19.1119C16.7185 18.7549 16.3998 18.2671 15.8482 18.0225Z" fill="#5A5F63"/>
<path d="M13.5786 32.0794C13.1445 31.6712 13.1244 30.9883 13.5326 30.5557C13.9409 30.123 14.6223 30.1014 15.0564 30.5097C19.5112 34.7028 26.4888 34.7028 30.9436 30.5097C31.3778 30.1014 32.0591 30.123 32.4674 30.5557C32.8756 30.9898 32.8555 31.6712 32.4214 32.0794C27.1386 37.0532 18.8614 37.0532 13.5786 32.0794Z" fill="#3E4347"/>
</g>
<defs>
<clipPath id="clip0">
<rect width="46" height="46" fill="white"/>
</clipPath>
</defs>
</svg>
