<svg width="46" height="46" viewBox="0 0 46 46" fill="none" xmlns="http://www.w3.org/2000/svg">
<g clip-path="url(#clip0)">
<path d="M23 46C35.7025 46 46 35.7025 46 23C46 10.2975 35.7025 0 23 0C10.2975 0 0 10.2975 0 23C0 35.7025 10.2975 46 23 46Z" fill="#FFD93B"/>
<path d="M22.9999 38.144C16.8216 38.144 11.3921 34.1851 9.4903 28.2928C9.30774 27.7264 9.61824 27.1184 10.1846 26.9358C10.7539 26.7518 11.3591 27.0637 11.5416 27.6301C13.1559 32.6283 17.7602 35.9877 22.9999 35.9877C28.2396 35.9877 32.8439 32.6297 34.4582 27.6301C34.6408 27.0637 35.246 26.7518 35.8152 26.9358C36.3816 27.1184 36.6921 27.7264 36.5096 28.2928C34.6077 34.1851 29.1783 38.144 22.9999 38.144Z" fill="#3E4347"/>
<path d="M45.9998 23C45.9998 35.7075 35.7001 46 22.9998 46C15.7691 46 9.31477 42.665 5.0957 37.4397C9.04164 40.6309 14.0657 42.5356 19.5354 42.5356C32.2357 42.5356 42.5354 32.2431 42.5354 19.5356C42.5354 14.0659 40.6307 9.04188 37.4395 5.09595C42.6576 9.31501 45.9998 15.7694 45.9998 23Z" fill="#F4C534"/>
<path d="M19.1764 19.2423C18.0954 17.7675 16.1462 16.7871 13.9238 16.7871C11.6914 16.7971 9.74213 17.7775 8.66113 19.2524C8.71145 16.3932 11.0459 14.0903 13.9238 14.0903C16.7816 14.0903 19.1261 16.3831 19.1764 19.2423Z" fill="#3E4347"/>
<path d="M37.3405 19.2423C36.2595 17.7675 34.3103 16.7871 32.0879 16.7871C29.8554 16.7971 27.9062 17.7775 26.8252 19.2524C26.8755 16.3932 29.21 14.0903 32.0879 14.0903C34.9471 14.0903 37.2902 16.3831 37.3405 19.2423Z" fill="#3E4347"/>
</g>
<defs>
<clipPath id="clip0">
<rect width="46" height="46" fill="white"/>
</clipPath>
</defs>
</svg>
