<svg width="46" height="46" viewBox="0 0 46 46" fill="none" xmlns="http://www.w3.org/2000/svg">
<g clip-path="url(#clip0)">
<path d="M23 46C35.7025 46 46 35.7025 46 23C46 10.2975 35.7025 0 23 0C10.2975 0 0 10.2975 0 23C0 35.7025 10.2975 46 23 46Z" fill="#FFD93B"/>
<path d="M46 23C46 35.7075 35.7003 46 23 46C15.7694 46 9.31501 42.665 5.09595 37.4397C9.04188 40.6309 14.0659 42.5356 19.5356 42.5356C32.2359 42.5356 42.5356 32.2431 42.5356 19.5356C42.5356 14.0659 40.6309 9.04188 37.4397 5.09595C42.6578 9.31501 46 15.7694 46 23Z" fill="#F4C534"/>
<path d="M15.351 36.3184C14.6912 35.8771 14.5144 34.9844 14.9557 34.3246C18.285 29.3508 23.4226 29.3508 30.5339 29.3508C31.3274 29.3508 31.9714 29.9948 31.9714 30.7883C31.9714 31.5818 31.3274 32.2258 30.5339 32.2258C23.299 32.2258 19.7153 32.3825 17.3449 35.9245C16.9007 36.5858 16.008 36.7568 15.351 36.3184Z" fill="#3E4347"/>
<path d="M14.6625 22.8893C16.6997 22.8893 18.3511 21.2379 18.3511 19.2007C18.3511 17.1635 16.6997 15.5121 14.6625 15.5121C12.6253 15.5121 10.9739 17.1635 10.9739 19.2007C10.9739 21.2379 12.6253 22.8893 14.6625 22.8893Z" fill="#3E4347"/>
<path d="M16.7485 18.5594C16.4926 18.8009 16.0096 18.7132 15.7006 18.3697C15.3814 18.0275 15.3268 17.5417 15.5956 17.3074C15.8616 17.063 16.3331 17.1435 16.6522 17.487C16.9728 17.8392 17.0145 18.3165 16.7485 18.5594Z" fill="#5A5F63"/>
<path d="M31.3432 22.8893C33.3803 22.8893 35.0318 21.2379 35.0318 19.2007C35.0318 17.1635 33.3803 15.5121 31.3432 15.5121C29.306 15.5121 27.6545 17.1635 27.6545 19.2007C27.6545 21.2379 29.306 22.8893 31.3432 22.8893Z" fill="#3E4347"/>
<path d="M33.4292 18.5594C33.1733 18.8009 32.6903 18.7132 32.3812 18.3697C32.0621 18.0275 32.0075 17.5417 32.2763 17.3074C32.5422 17.063 33.0137 17.1435 33.3329 17.487C33.6534 17.8392 33.6951 18.3165 33.4292 18.5594Z" fill="#5A5F63"/>
</g>
<defs>
<clipPath id="clip0">
<rect width="46" height="46" fill="white"/>
</clipPath>
</defs>
</svg>
