<svg width="36" height="36" viewBox="0 0 36 36" fill="none" xmlns="http://www.w3.org/2000/svg">
<g clip-path="url(#clip0)">
<path d="M24.3489 19.2109C24.6686 19.2109 24.9278 19.4701 24.9278 19.7898H26.0857C26.0857 19.0359 25.6 18.399 24.9278 18.1596V16.8951H23.7699V18.1596C23.098 18.399 22.6121 19.0359 22.6121 19.7898C22.6121 20.7473 23.3914 21.5266 24.3489 21.5266C24.6686 21.5266 24.9278 21.7859 24.9278 22.1056C24.9278 22.425 24.6686 22.6845 24.3489 22.6845C24.0294 22.6845 23.7699 22.425 23.7699 22.1056H22.6121C22.6121 22.8592 23.098 23.4961 23.7699 23.7358V25.0003H24.9278V23.7358C25.6 23.4961 26.0857 22.8592 26.0857 22.1056C26.0857 21.1478 25.3066 20.3688 24.3489 20.3688C24.0294 20.3688 23.7699 20.1093 23.7699 19.7898C23.7699 19.4701 24.0294 19.2109 24.3489 19.2109Z" fill="black"/>
<path d="M35.0286 6.74512L24.3488 0L17.9805 4.02174V2.42175H14.5069V6.21593L13.6693 6.74512C13.1059 7.1013 12.77 7.71076 12.77 8.37592V8.59839C12.77 9.66185 13.6351 10.5269 14.6985 10.5269C15.0383 10.5269 15.3702 10.4341 15.6647 10.2634V12.8941C14.3907 11.4461 12.5298 10.5269 10.4543 10.5269C6.62365 10.5269 3.50707 13.6432 3.50707 17.4741V22.1056C3.50707 23.3828 4.54593 24.4213 5.82281 24.4213H6.16401C6.46394 25.1594 6.94789 25.8025 7.55962 26.2941V27.4596L2.9629 28.7854C1.23825 29.2832 0.0334473 30.884 0.0334473 32.6791V36.0001H20.8752V32.6791C20.8752 30.884 19.6706 29.2838 17.946 28.7854L13.349 27.4596V26.2941C13.961 25.8025 14.4449 25.1594 14.7449 24.4213H15.0858C15.9392 24.4213 16.6779 23.9524 17.0798 23.2635H18.4229C19.3521 25.6318 21.6551 27.316 24.3488 27.316C27.0428 27.316 29.3458 25.6318 30.275 23.2635H33.0328V10.2634C33.3277 10.4341 33.6587 10.5269 33.9993 10.5269C35.0628 10.5269 35.9275 9.66185 35.9275 8.59839V8.37592C35.9275 7.71076 35.592 7.1013 35.0286 6.74512ZM15.6647 3.57962H16.8226V4.75361L15.6647 5.48491V3.57962ZM10.4543 11.6847C13.6467 11.6847 16.2437 14.2817 16.2437 17.4741V20.1115C15.9016 19.9125 15.5098 19.7898 15.0858 19.7898V19.2109L15.0748 18.6342L14.4984 18.632C13.1644 18.6272 11.9104 18.1067 10.9657 17.1665L10.4526 16.6566L9.94491 17.1643C8.99905 18.111 7.74026 18.632 6.40175 18.632H5.82281V19.7898C5.39907 19.7898 5.00727 19.9125 4.66494 20.1115V17.4741C4.66494 14.2817 7.26224 11.6847 10.4543 11.6847ZM5.82281 23.2635C5.18423 23.2635 4.66494 22.7442 4.66494 22.1056C4.66494 21.467 5.18423 20.9477 5.82281 20.9477V22.6845C5.82281 22.8807 5.83921 23.0735 5.86295 23.2635H5.82281ZM7.97064 28.5457L9.58788 30.1626L7.87764 31.5305L7.09658 28.7981L7.97064 28.5457ZM19.7173 32.6791V34.8422H16.2437V32.5264H15.0858V34.8422H5.82281V32.5264H4.66494V34.8422H1.19132V32.6791C1.19132 31.3974 2.05181 30.2539 3.28375 29.898L5.98394 29.1187L7.24188 33.5215L10.4543 30.9522L13.667 33.5221L14.9249 29.1193L17.6251 29.8986C18.8571 30.2534 19.7173 31.3974 19.7173 32.6791ZM13.8123 28.7981L13.0312 31.5311L11.321 30.1632L12.938 28.5463L13.8123 28.7981ZM12.1911 27.6552L10.4543 29.392L8.71749 27.6552V26.9751C9.25431 27.1933 9.84003 27.316 10.4543 27.316C11.0686 27.316 11.6546 27.1933 12.1911 26.9751V27.6552ZM13.9279 22.6845C13.9279 24.6003 12.3701 26.1581 10.4543 26.1581C8.53884 26.1581 6.98068 24.6003 6.98068 22.6845V19.7633C8.27114 19.644 9.47706 19.1269 10.4549 18.2724C11.433 19.1247 12.638 19.6409 13.9279 19.7619V22.6845ZM15.0858 23.2635H15.0459C15.0697 23.0735 15.0858 22.8807 15.0858 22.6845V20.9477C15.7244 20.9477 16.2437 21.467 16.2437 22.1056C16.2437 22.7442 15.7244 23.2635 15.0858 23.2635ZM24.3488 26.1581C21.4756 26.1581 19.1383 23.8209 19.1383 20.9477C19.1383 18.0745 21.4756 15.7373 24.3488 15.7373C27.2223 15.7373 29.5592 18.0745 29.5592 20.9477C29.5592 23.8209 27.2223 26.1581 24.3488 26.1581ZM30.6065 22.1056C30.6761 21.7293 30.7171 21.3438 30.7171 20.9477C30.7171 17.4365 27.8603 14.5794 24.3488 14.5794C20.8376 14.5794 17.9805 17.4365 17.9805 20.9477C17.9805 21.3438 18.0217 21.7293 18.0913 22.1056H17.4015V17.4741C17.4015 16.4898 17.1932 15.555 16.8226 14.7055V9.54482L24.3488 4.84152L31.8749 9.54538V22.1056H30.6065ZM34.7696 8.59839C34.7696 9.02327 34.4242 9.36899 33.9993 9.36899C33.8551 9.36899 33.7138 9.32828 33.5906 9.25196L24.3488 3.47531L15.1078 9.25139C14.9846 9.32828 14.8433 9.36899 14.6985 9.36899C14.2736 9.36899 13.9279 9.02327 13.9279 8.59839V8.37592C13.9279 8.1102 14.0625 7.86596 14.2875 7.72405L24.3488 1.36989L34.4103 7.72462C34.6354 7.86596 34.7696 8.1102 34.7696 8.37592V8.59839Z" fill="black"/>
<path d="M21.4541 12.2637H27.2435V7.6322H21.4541V12.2637ZM22.612 8.79008H26.0856V11.1058H22.612V8.79008Z" fill="black"/>
</g>
<defs>
<clipPath id="clip0">
<rect width="36" height="36" fill="white"/>
</clipPath>
</defs>
</svg>
