<svg width="60" height="60" viewBox="0 0 60 60" fill="none" xmlns="http://www.w3.org/2000/svg">
<g clip-path="url(#clip0)">
<path d="M3.28969 59.5302C2.43305 59.5302 1.59996 59.1936 0.967966 58.5617C0.0700737 57.6638 -0.231333 56.36 0.181285 55.1591L2.58164 48.1737C1.41762 45.7204 0.803317 43.0074 0.798981 40.2781C0.791364 35.4054 2.67633 30.7986 6.10665 27.3064C9.53767 23.8132 14.1101 21.8471 18.9815 21.7697C24.0337 21.688 28.78 23.6113 32.3492 27.1806C35.9184 30.7499 37.8399 35.4973 37.7599 40.5483C37.6827 45.4198 35.7162 49.9921 32.2232 53.4229C28.7308 56.8533 24.1248 58.7372 19.2515 58.7305C16.5223 58.7263 13.8093 58.1121 11.3558 56.9478L4.37039 59.3482C4.01485 59.4705 3.65016 59.5302 3.28969 59.5302Z" fill="#EBFFE8"/>
<g filter="url(#filter0_d)">
<path d="M59.7839 47.0909L56.2991 36.9491C57.9789 33.5153 58.8666 29.6965 58.8726 25.8539C58.8829 19.1727 56.298 12.8554 51.5938 8.06597C46.8887 3.27557 40.619 0.579076 33.9393 0.473256C27.0129 0.363685 20.5024 2.9983 15.6078 7.89276C10.7133 12.7873 8.07806 19.2977 8.18787 26.2244C8.29369 32.904 10.9902 39.1739 15.7805 43.879C20.5605 48.574 26.8617 51.1582 33.5286 51.158C33.5418 51.158 33.5556 51.158 33.5685 51.158C37.4111 51.152 41.23 50.2643 44.6638 48.5846L54.8057 52.0695C55.2283 52.2147 55.6616 52.2855 56.09 52.2855C57.1081 52.2855 58.0981 51.8856 58.8491 51.1344C59.9161 50.0673 60.2743 48.5181 59.7839 47.0909Z" fill="#EBFFE8"/>
</g>
<path d="M44.1683 19.9207H22.8917C21.9054 19.9207 21.106 19.1211 21.106 18.135C21.106 17.1488 21.9055 16.3492 22.8917 16.3492H44.1683C45.1545 16.3492 45.954 17.1488 45.954 18.135C45.954 19.1211 45.1545 19.9207 44.1683 19.9207Z" fill="#23FF00"/>
<path d="M44.1683 27.2651H22.8917C21.9054 27.2651 21.106 26.4656 21.106 25.4794C21.106 24.4932 21.9055 23.6937 22.8917 23.6937H44.1683C45.1545 23.6937 45.954 24.4933 45.954 25.4794C45.954 26.4656 45.1545 27.2651 44.1683 27.2651Z" fill="#23FF00"/>
<path d="M35.9769 34.6089H22.8902C21.9039 34.6089 21.1045 33.8093 21.1045 32.8232C21.1045 31.837 21.9041 31.0375 22.8902 31.0375H35.9768C36.9631 31.0375 37.7625 31.837 37.7625 32.8232C37.7625 33.8093 36.9632 34.6089 35.9769 34.6089Z" fill="#23FF00"/>
<path d="M56.2993 36.9491C57.9791 33.5152 58.8668 29.6964 58.8728 25.8538C58.8831 19.1726 56.2982 12.8554 51.594 8.06591C46.8889 3.27551 40.6191 0.579019 33.9394 0.473198C33.8023 0.471089 33.6656 0.471792 33.5288 0.471792V51.1581C33.5418 51.1581 33.5555 51.1581 33.5684 51.1581C37.411 51.1521 41.2299 50.2644 44.6638 48.5846L54.8057 52.0696C55.2282 52.2147 55.6616 52.2855 56.0899 52.2855C57.108 52.2855 58.098 51.8857 58.8491 51.1345C59.9161 50.0675 60.2743 48.5181 59.784 47.0911L56.2993 36.9491Z" fill="#FCFCFC"/>
<path d="M44.1671 16.349H33.5288V19.9204H44.1671C45.1534 19.9204 45.9528 19.1208 45.9528 18.1347C45.9528 17.1486 45.1534 16.349 44.1671 16.349Z" fill="#67FF4F"/>
<path d="M44.1671 23.6935H33.5288V27.2649H44.1671C45.1534 27.2649 45.9528 26.4653 45.9528 25.4792C45.9528 24.4931 45.1534 23.6935 44.1671 23.6935Z" fill="#67FF4F"/>
<path d="M35.9771 31.0374H33.5288V34.6088H35.9771C36.9634 34.6088 37.7628 33.8092 37.7628 32.8231C37.7628 31.8369 36.9634 31.0374 35.9771 31.0374Z" fill="#67FF4F"/>
</g>
<defs>
<filter id="filter0_d" x="4.18457" y="0.469971" width="59.8154" height="59.8155" filterUnits="userSpaceOnUse" color-interpolation-filters="sRGB">
<feFlood flood-opacity="0" result="BackgroundImageFix"/>
<feColorMatrix in="SourceAlpha" type="matrix" values="0 0 0 0 0 0 0 0 0 0 0 0 0 0 0 0 0 0 127 0"/>
<feOffset dy="4"/>
<feGaussianBlur stdDeviation="2"/>
<feColorMatrix type="matrix" values="0 0 0 0 0 0 0 0 0 0 0 0 0 0 0 0 0 0 0.03 0"/>
<feBlend mode="normal" in2="BackgroundImageFix" result="effect1_dropShadow"/>
<feBlend mode="normal" in="SourceGraphic" in2="effect1_dropShadow" result="shape"/>
</filter>
<clipPath id="clip0">
<rect width="60" height="60" fill="white"/>
</clipPath>
</defs>
</svg>
