<svg width="100" height="100" viewBox="0 0 100 100" fill="none" xmlns="http://www.w3.org/2000/svg">
<path d="M51.5259 41.5422C38.6126 28.6306 24.4531 21.8549 19.8982 26.4081C19.3984 26.9316 19.0306 27.5666 18.8253 28.2607L18.752 28.1874L14.402 46.0138L10.0704 63.7869L4.9357 84.832L1.6853 98.1601L20.9295 90.878L45.4066 81.6166L64.934 74.2278L64.9107 74.2045C65.5644 73.996 66.1625 73.6424 66.66 73.1699C71.2149 68.615 64.4392 54.4555 51.5259 41.5422Z" fill="#DD1C4B"/>
<path d="M51.5257 41.5371C38.6128 28.6243 24.4529 21.8484 19.8986 26.4027C15.3443 30.957 22.1203 45.1169 35.0331 58.0297C47.9459 70.9425 62.1058 77.7184 66.6601 73.1641C71.2144 68.6098 64.4385 54.4499 51.5257 41.5371Z" fill="#D1E3EE"/>
<path d="M63.1614 74.8043C60.8298 74.8451 58.5165 74.3861 56.3773 73.4581L40.4169 79.4974L15.9314 88.7505L2.80153 93.7186L1.6853 98.2951L20.9295 91.013L45.4066 81.7516L63.328 74.9709L63.1614 74.8043Z" fill="#B21D48"/>
<path d="M83.3194 61.6427C83.1199 61.6421 82.922 61.6065 82.7346 61.5378C74.2768 58.3692 65.1344 57.4808 56.2249 58.9621L50.2739 59.9534C49.363 60.0833 48.5192 59.4503 48.3892 58.5394C48.2636 57.6593 48.8511 56.8357 49.7241 56.668L55.6768 55.6684C65.1635 54.0921 74.8978 55.0374 83.9041 58.409C84.77 58.7201 85.2197 59.6743 84.9085 60.5403C84.6682 61.2092 84.0301 61.6519 83.3194 61.6427Z" fill="#FFBF41"/>
<path d="M53.3313 51.6464C52.4113 51.641 51.6697 50.8906 51.6751 49.9706C51.6788 49.3354 52.0433 48.7577 52.6149 48.481L87.6013 31.8208C88.4322 31.4251 89.4264 31.7779 89.8221 32.6088C90.2178 33.4397 89.865 34.4339 89.0341 34.8296L54.0477 51.4898C53.8236 51.5945 53.5787 51.6481 53.3313 51.6464Z" fill="#FFBF41"/>
<path d="M33.8487 48.3145C33.629 48.3149 33.4114 48.2714 33.209 48.1862C32.3597 47.832 31.9584 46.8565 32.3127 46.0073V46.007L34.7351 40.1943C38.4622 31.2884 39.3312 21.4447 37.2224 12.0236C37.0063 11.1292 37.5563 10.2291 38.4505 10.0129C39.3449 9.79678 40.245 10.3468 40.4612 11.241C40.466 11.2608 40.4703 11.2806 40.4745 11.3006C42.7336 21.3927 41.8021 31.9373 37.8089 41.4771L35.3848 47.2899C35.1262 47.9098 34.5206 48.3139 33.8487 48.3145Z" fill="#FFBF41"/>
<path d="M91.6499 68.3068C93.4901 68.3068 94.9819 66.815 94.9819 64.9748C94.9819 63.1346 93.4901 61.6428 91.6499 61.6428C89.8097 61.6428 88.3179 63.1346 88.3179 64.9748C88.3179 66.815 89.8097 68.3068 91.6499 68.3068Z" fill="#D5557E"/>
<path d="M51.6658 21.6583C53.506 21.6583 54.9978 20.1665 54.9978 18.3263C54.9978 16.4861 53.506 14.9943 51.6658 14.9943C49.8256 14.9943 48.3337 16.4861 48.3337 18.3263C48.3337 20.1665 49.8256 21.6583 51.6658 21.6583Z" fill="#DD95C1"/>
<path d="M36.6714 6.66407C34.8311 6.66407 33.3394 5.17236 33.3394 3.33204C33.3394 1.49171 34.8311 0 36.6714 0C38.5117 0 40.0034 1.49171 40.0034 3.33204C40.0034 5.17236 38.5117 6.66407 36.6714 6.66407Z" fill="#7FCCCB"/>
<path d="M83.3201 13.3281C82.4 13.3281 81.6541 12.5821 81.6541 11.6621V9.99603C81.6541 9.07598 82.4 8.33002 83.3201 8.33002C84.2401 8.33002 84.9861 9.07598 84.9861 9.99603V11.6621C84.9861 12.5821 84.2401 13.3281 83.3201 13.3281Z" fill="#2276BB"/>
<path d="M83.3201 4.99805C82.4 4.99805 81.6541 4.25209 81.6541 3.33204V1.66602C81.6541 0.745959 82.4 0 83.3201 0C84.2401 0 84.9861 0.745959 84.9861 1.66602V3.33204C84.9861 4.25209 84.2401 4.99805 83.3201 4.99805Z" fill="#2276BB"/>
<path d="M88.3181 8.33014H86.6521C85.732 8.33014 84.9861 7.58418 84.9861 6.66413C84.9861 5.74407 85.732 4.99811 86.6521 4.99811H88.3181C89.2382 4.99811 89.9841 5.74407 89.9841 6.66413C89.9841 7.58418 89.2382 8.33014 88.3181 8.33014Z" fill="#2276BB"/>
<path d="M79.988 8.33014H78.322C77.402 8.33014 76.656 7.58418 76.656 6.66413C76.656 5.74407 77.402 4.99811 78.322 4.99811H79.988C80.9081 4.99811 81.6541 5.74407 81.6541 6.66413C81.6541 7.58418 80.9081 8.33014 79.988 8.33014Z" fill="#2276BB"/>
<path d="M14.9101 48.3145C14.7235 47.6014 14.5569 46.8817 14.402 46.1487L10.0703 63.9218L10.4035 67.9852C11.1297 76.6483 14.8512 84.7876 20.9277 91.0045L45.4065 81.7515C45.2733 81.7098 45.135 81.6798 45.0017 81.6349C30.1585 76.0693 18.9394 63.6462 14.9101 48.3145Z" fill="white"/>
<path d="M45.4065 81.7515C45.2732 81.7099 45.135 81.6799 45.0017 81.6349C43.3981 81.0278 41.8275 80.3366 40.2969 79.564L18.2488 87.9058C19.0847 88.9899 19.9796 90.0272 20.9294 91.0129L45.4065 81.7515Z" fill="#F6F6E7"/>
<path d="M71.6578 19.9572V28.3222H63.2927V19.9572H71.6578Z" fill="#C9DA53"/>
<path d="M41.6695 49.9805C40.7494 49.9803 40.0037 49.2341 40.0039 48.314C40.0041 47.8421 40.2042 47.3925 40.5549 47.0766L57.2151 32.0824C57.9109 31.4804 58.963 31.5564 59.565 32.2522C60.1504 32.9286 60.0971 33.9465 59.4442 34.5582L42.7841 49.5523C42.4781 49.8278 42.0812 49.9803 41.6695 49.9805Z" fill="#FFBF41"/>
<path d="M89.9841 43.3163C89.0641 43.3163 88.3181 42.5704 88.3181 41.6503V39.9843C88.3181 39.0643 89.0641 38.3183 89.9841 38.3183C90.9042 38.3183 91.6501 39.0643 91.6501 39.9843V41.6503C91.6501 42.5704 90.9042 43.3163 89.9841 43.3163Z" fill="#FFDB43"/>
<path d="M95.875 40.8756C95.4329 40.8768 95.0087 40.7011 94.6971 40.3874L93.5192 39.2095C92.8801 38.5477 92.8982 37.4929 93.56 36.8538C94.2056 36.2303 95.2292 36.2303 95.875 36.8538L97.0529 38.0317C97.7035 38.6825 97.7033 39.7373 97.0525 40.3878C96.7403 40.7 96.3167 40.8756 95.875 40.8756Z" fill="#FFDB43"/>
<path d="M98.3142 34.9863H96.6482C95.7281 34.9863 94.9822 34.2403 94.9822 33.3203C94.9822 32.4002 95.7281 31.6542 96.6482 31.6542H98.3142C99.2343 31.6542 99.9802 32.4002 99.9802 33.3203C99.9802 34.2403 99.2343 34.9863 98.3142 34.9863Z" fill="#FFDB43"/>
<path d="M94.6973 30.2749C93.7773 30.2747 93.0315 29.5287 93.0317 28.6084C93.0317 28.1667 93.2073 27.7432 93.5195 27.431L94.6973 26.2531C95.3592 25.6138 96.4137 25.6321 97.0531 26.2939C97.6766 26.9395 97.6766 27.9631 97.0531 28.6089L95.8752 29.7867C95.5628 30.0991 95.1392 30.2749 94.6973 30.2749Z" fill="#FFDB43"/>
<path d="M89.9841 28.3223C89.0641 28.3223 88.3181 27.5763 88.3181 26.6563V24.9902C88.3181 24.0702 89.0641 23.3242 89.9841 23.3242C90.9042 23.3242 91.6501 24.0702 91.6501 24.9902V26.6563C91.6501 27.5763 90.9042 28.3223 89.9841 28.3223Z" fill="#FFDB43"/>
<path d="M85.2712 30.2748C84.8293 30.2748 84.4057 30.0991 84.0933 29.7867L82.9155 28.6088C82.2763 27.947 82.2944 26.8922 82.9563 26.253C83.6018 25.6295 84.6254 25.6295 85.2712 26.253L86.449 27.4309C87.0996 28.0817 87.0994 29.1365 86.4486 29.7871C86.1365 30.0993 85.7129 30.2748 85.2712 30.2748Z" fill="#FFDB43"/>
<path d="M10.0154 1.66595L12.5894 6.88226L18.3455 7.7186L14.1804 11.7787L15.1634 17.5114L10.0154 14.8042L4.8674 17.5114L5.85035 11.7787L1.6853 7.7186L7.44139 6.88226L10.0154 1.66595Z" fill="#FFDB43"/>
<path d="M99.4542 90.2415C98.6618 87.4332 96.8373 85.0285 94.3462 83.5091L93.6598 82.4795C89.8111 76.724 83.7591 72.8106 76.9314 71.6621C76.0205 71.5321 75.1766 72.1652 75.0467 73.0761C74.9211 73.9562 75.5086 74.7798 76.3816 74.9474C81.3063 75.7834 85.7944 78.2853 89.0949 82.0347C86.32 82.5339 83.893 84.2005 82.4309 86.6112C80.6366 89.8248 81.7872 93.8842 85.0007 95.6785C88.2142 97.4728 92.2737 96.3222 94.068 93.1087C94.7534 91.7857 95.1234 90.3219 95.1492 88.832C96.9219 91.4067 97.0637 94.7689 95.5141 97.4837C95.0447 98.275 95.3056 99.2971 96.097 99.7665C96.8884 100.236 97.9105 99.975 98.3799 99.1836C98.3948 99.1582 98.4092 99.1326 98.423 99.1064C99.9365 96.4076 100.308 93.2155 99.4542 90.2415ZM91.1625 91.4827C90.2732 93.0939 88.2463 93.6791 86.6353 92.7899C85.024 91.9006 84.4388 89.8737 85.3281 88.2627C85.3331 88.2537 85.3381 88.2446 85.3431 88.2356C86.3262 86.6258 87.9845 85.5466 89.8546 85.3001C90.1443 85.2922 90.4311 85.3588 90.6876 85.4933C92.0938 86.278 92.1687 89.68 91.1625 91.4827Z" fill="#2BB3CE"/>
<path d="M64.196 76.357C65.5298 76.1525 66.766 75.5354 67.7313 74.5927C69.3839 72.9417 70.8051 69.538 68.1878 62.7123C67.8758 61.8466 66.9212 61.3978 66.0557 61.7098C65.19 62.0217 64.7412 62.9764 65.0531 63.8419C65.0608 63.8631 65.069 63.8841 65.0773 63.9052C66.5967 67.8703 66.7067 70.9025 65.3755 72.2353C63.7628 73.8446 59.7477 73.3415 54.6297 70.8925C47.7772 67.3355 41.549 62.6877 36.1885 57.1311C23.137 44.0796 17.7524 31.2729 21.0828 27.9425C22.1463 27.1037 23.5278 26.7813 24.853 27.0629C25.7661 27.1753 26.5977 26.526 26.7099 25.6128C26.8224 24.6996 26.1731 23.8681 25.2599 23.7558C25.2316 23.7523 25.203 23.7496 25.1745 23.7475C22.8581 23.3376 20.4815 24.013 18.727 25.5801C12.6244 31.6911 21.9541 47.6099 33.8395 59.4886C39.466 65.3117 46.0043 70.1786 53.1969 73.8979C54.5002 74.5217 55.843 75.0587 57.217 75.5057L45.3716 79.9856C31.1463 74.561 20.4076 62.6128 16.5262 47.8914C16.1264 46.367 15.7998 44.8093 15.5549 43.2599C15.4383 42.3471 14.6038 41.7017 13.6913 41.8184C12.7785 41.935 12.1331 42.7695 12.2497 43.682C12.2537 43.7135 12.2587 43.7449 12.2645 43.7761C12.5261 45.4422 12.876 47.1082 13.3041 48.7375C17.1389 63.2727 27.2416 75.3482 40.8717 81.688L21.3876 89.0602C21.2989 88.9109 21.1863 88.7767 21.0544 88.6637C16.103 84.6888 12.9965 78.8585 12.4595 72.5316L11.6814 63.1703C11.6202 62.2633 10.8353 61.5775 9.92836 61.6388C9.91295 61.6398 9.89754 61.6411 9.88212 61.6425C8.96519 61.7185 8.28358 62.5232 8.35938 63.4402L9.13908 72.8048C9.72635 79.567 12.8805 85.8475 17.954 90.3563L4.05773 95.6176L6.55675 85.3616C6.77479 84.4672 6.22667 83.5654 5.33223 83.3474C4.43779 83.1294 3.53606 83.6775 3.31802 84.5719L0.067615 97.9001C-0.150425 98.7939 0.397486 99.6954 1.2913 99.9134C1.42042 99.9451 1.55266 99.9611 1.68532 99.9611C1.8867 99.9609 2.08641 99.9249 2.27509 99.8545L63.9177 76.5303C64.0165 76.4826 64.1098 76.4245 64.196 76.357Z" fill="black"/>
<path d="M55.6805 55.6748L49.7294 56.6744C48.8181 56.801 48.1819 57.6424 48.3085 58.5539C48.4352 59.4654 49.2765 60.1014 50.188 59.9748C50.218 59.9706 50.248 59.9656 50.2776 59.9598L56.2286 58.9685C65.1386 57.4872 74.2815 58.3756 82.7399 61.5442C82.9261 61.6102 83.1223 61.6435 83.3197 61.6425C84.2397 61.6439 84.987 60.8994 84.9884 59.9792C84.9897 59.2826 84.5571 58.6586 83.9045 58.4154C74.8992 55.0444 65.1661 54.0994 55.6805 55.6748Z" fill="black"/>
<path d="M51.8325 50.6968C52.228 51.5269 53.2211 51.8795 54.0516 51.4848L89.038 34.8246C89.8646 34.4204 90.2067 33.4225 89.8025 32.5959C89.4046 31.7823 88.4291 31.4355 87.6069 31.8158L52.6205 48.476C51.7898 48.8715 51.4368 49.8654 51.8323 50.6964C51.8323 50.6966 51.8325 50.6966 51.8325 50.6968Z" fill="black"/>
<path d="M33.2147 48.1861C33.4173 48.2713 33.6347 48.3148 33.8545 48.3144C34.5269 48.3144 35.1333 47.9104 35.3922 47.2898L37.8146 41.4837C41.8087 31.9441 42.7402 21.3992 40.4802 11.3071C40.297 10.4054 39.4175 9.82291 38.5158 10.0062C37.614 10.1894 37.0316 11.0689 37.2148 11.9706C37.2188 11.9906 37.2234 12.0104 37.2281 12.0302C39.3384 21.4511 38.4697 31.295 34.7424 40.2009L32.3184 46.0136C31.9685 46.861 32.3692 47.8319 33.2147 48.1861Z" fill="black"/>
<path d="M86.6521 64.9746C86.6521 67.735 88.8898 69.9727 91.6502 69.9727C94.4105 69.9727 96.6482 67.735 96.6482 64.9746C96.6482 62.2142 94.4105 59.9766 91.6502 59.9766C88.8898 59.9766 86.6521 62.2142 86.6521 64.9746ZM93.3162 64.9746C93.3162 65.8947 92.5702 66.6406 91.6502 66.6406C90.7301 66.6406 89.9841 65.8947 89.9841 64.9746C89.9841 64.0546 90.7301 63.3086 91.6502 63.3086C92.5702 63.3086 93.3162 64.0546 93.3162 64.9746Z" fill="black"/>
<path d="M56.6635 18.3261C56.6635 15.5657 54.4259 13.3281 51.6655 13.3281C48.9051 13.3281 46.6675 15.5657 46.6675 18.3261C46.6675 21.0865 48.9051 23.3242 51.6655 23.3242C54.4259 23.3242 56.6635 21.0865 56.6635 18.3261ZM49.9995 18.3261C49.9995 17.4061 50.7455 16.6601 51.6655 16.6601C52.5856 16.6601 53.3315 17.4061 53.3315 18.3261C53.3315 19.2462 52.5856 19.9921 51.6655 19.9921C50.7455 19.9921 49.9995 19.2462 49.9995 18.3261Z" fill="black"/>
<path d="M36.6714 6.66407C38.5116 6.66407 40.0034 5.17227 40.0034 3.33204C40.0034 1.4918 38.5116 0 36.6714 0C34.8312 0 33.3394 1.4918 33.3394 3.33204C33.3394 5.17227 34.8312 6.66407 36.6714 6.66407Z" fill="black"/>
<path d="M81.6541 11.6621C81.6541 12.5821 82.4 13.3281 83.3201 13.3281C84.2401 13.3281 84.9861 12.5821 84.9861 11.6621V9.99603C84.9861 9.07598 84.2401 8.33002 83.3201 8.33002C82.4 8.33002 81.6541 9.07598 81.6541 9.99603V11.6621Z" fill="black"/>
<path d="M83.3201 0C82.4 0 81.6541 0.745959 81.6541 1.66602V3.33204C81.6541 4.25209 82.4 4.99805 83.3201 4.99805C84.2401 4.99805 84.9861 4.25209 84.9861 3.33204V1.66602C84.9861 0.745959 84.2401 0 83.3201 0Z" fill="black"/>
<path d="M88.3181 4.99811H86.6521C85.732 4.99811 84.9861 5.74407 84.9861 6.66413C84.9861 7.58418 85.732 8.33014 86.6521 8.33014H88.3181C89.2382 8.33014 89.9841 7.58418 89.9841 6.66413C89.9841 5.74407 89.2382 4.99811 88.3181 4.99811Z" fill="black"/>
<path d="M79.988 4.99811H78.322C77.402 4.99811 76.656 5.74407 76.656 6.66413C76.656 7.58418 77.402 8.33014 78.322 8.33014H79.988C80.9081 8.33014 81.6541 7.58418 81.6541 6.66413C81.6541 5.74407 80.9081 4.99811 79.988 4.99811Z" fill="black"/>
<path d="M71.6579 29.9883C72.578 29.9883 73.3239 29.2423 73.3239 28.3223V19.9572C73.3239 19.0372 72.578 18.2912 71.6579 18.2912H63.2979C62.3778 18.2912 61.6318 19.0372 61.6318 19.9572V28.3223C61.6318 29.2423 62.3778 29.9883 63.2979 29.9883H71.6579ZM64.9589 21.6232H69.9919V26.6563H64.9639L64.9589 21.6232Z" fill="black"/>
<path d="M40.435 49.4291C41.0504 50.1132 42.1037 50.1688 42.7878 49.5534C42.7883 49.553 42.7887 49.5526 42.7891 49.5524L59.4492 34.5582C60.1206 33.9291 60.1552 32.8749 59.5261 32.2033C58.9145 31.5504 57.8965 31.4971 57.2201 32.0825L40.56 47.0767C39.8761 47.6919 39.82 48.745 40.435 49.4291Z" fill="black"/>
<path d="M91.6499 41.6505V39.9845C91.6499 39.0644 90.9039 38.3185 89.9839 38.3185C89.0638 38.3185 88.3179 39.0644 88.3179 39.9845V41.6505C88.3179 42.5706 89.0638 43.3165 89.9839 43.3165C90.9039 43.3165 91.6499 42.5706 91.6499 41.6505Z" fill="black"/>
<path d="M93.523 39.2096L94.7009 40.3875C95.3627 41.0268 96.4173 41.0085 97.0567 40.3467C97.6802 39.7011 97.6802 38.6776 97.0567 38.0318L95.8788 36.8539C95.217 36.2146 94.1624 36.2329 93.523 36.8947C92.8995 37.5405 92.8995 38.5641 93.523 39.2096Z" fill="black"/>
<path d="M98.3142 31.6542H96.6482C95.7281 31.6542 94.9822 32.4002 94.9822 33.3203C94.9822 34.2403 95.7281 34.9863 96.6482 34.9863H98.3142C99.2343 34.9863 99.9802 34.2403 99.9802 33.3203C99.9802 32.4002 99.2343 31.6542 98.3142 31.6542Z" fill="black"/>
<path d="M94.7003 30.2751C95.1423 30.2751 95.5658 30.0993 95.8782 29.7869L97.0561 28.609C97.6952 27.9472 97.6771 26.8924 97.0153 26.2533C96.3697 25.6298 95.3461 25.6298 94.7003 26.2533L93.5225 27.4312C92.8719 28.0819 92.8721 29.1367 93.5229 29.7873C93.8353 30.0995 94.2586 30.2751 94.7003 30.2751Z" fill="black"/>
<path d="M89.9839 23.3242C89.0638 23.3242 88.3179 24.0702 88.3179 24.9902V26.6563C88.3179 27.5763 89.0638 28.3223 89.9839 28.3223C90.9039 28.3223 91.6499 27.5763 91.6499 26.6563V24.9902C91.6499 24.0702 90.9039 23.3242 89.9839 23.3242Z" fill="black"/>
<path d="M85.2758 26.2531C84.614 25.6138 83.5594 25.6321 82.92 26.2939C82.2965 26.9395 82.2965 27.9631 82.92 28.6089L84.0979 29.7867C84.7597 30.4261 85.8143 30.4077 86.4537 29.7459C87.0772 29.1003 87.0772 28.0768 86.4537 27.431L85.2758 26.2531Z" fill="black"/>
<path d="M19.9347 7.20368C19.7383 6.60058 19.2164 6.16137 18.5885 6.07078L13.7004 5.3594L11.5146 0.929453C11.0286 0.10415 9.96544 -0.170952 9.14013 0.315109C8.88648 0.464426 8.67511 0.675802 8.52579 0.929453L6.33998 5.3594L1.45021 6.07078C0.539735 6.20386 -0.0904357 7.04978 0.0426375 7.96026C0.0955335 8.32178 0.265676 8.65603 0.52724 8.91134L4.0642 12.36L3.23119 17.2298C3.07229 18.1361 3.6781 18.9995 4.58441 19.1584C4.94718 19.2219 5.32079 19.1636 5.64691 18.9924L10.0152 16.6866L14.3885 18.9858C15.203 19.4139 16.2103 19.1009 16.6385 18.2864C16.809 17.9622 16.8677 17.5909 16.8059 17.2298L15.9729 12.36L19.5115 8.91134C19.9661 8.46902 20.1302 7.80698 19.9347 7.20368ZM13.0224 10.5857C12.63 10.9678 12.4507 11.5185 12.5426 12.0585L12.9557 14.4658L10.7949 13.328C10.3095 13.0726 9.72928 13.0726 9.24384 13.328L7.07802 14.4642L7.49286 12.0568C7.58491 11.518 7.40685 10.9683 7.01638 10.5857L5.27039 8.88136L7.68279 8.52983C8.22612 8.45152 8.69593 8.11061 8.93896 7.61851L10.0152 5.43103L11.0948 7.61851C11.3372 8.10978 11.8056 8.45048 12.3476 8.52983L14.7617 8.88136L13.0224 10.5857Z" fill="black"/>
<path d="M94.3509 83.509L93.6645 82.4794C89.8141 76.725 83.7621 72.812 76.9344 71.662C76.0312 71.4858 75.1563 72.0752 74.9804 72.9784C74.8042 73.8816 75.3935 74.7564 76.2967 74.9324C76.3265 74.9382 76.3563 74.9432 76.3863 74.9474C81.3106 75.7831 85.7982 78.285 89.0979 82.0346C86.3236 82.5355 83.8973 84.2017 82.4339 86.6112C80.6396 89.8251 81.7906 93.885 85.0045 95.6793C88.2185 97.4736 92.2784 96.3226 94.0727 93.1086C94.7549 91.7846 95.1231 90.3212 95.1489 88.832C95.6341 89.5436 96.0067 90.3258 96.2535 91.1511C96.861 93.2757 96.5946 95.5548 95.5138 97.4819C95.0444 98.2733 95.3053 99.2954 96.0967 99.7648C96.888 100.234 97.9101 99.9733 98.3795 99.1819C98.3945 99.1565 98.4089 99.1309 98.4226 99.1046C101.47 93.6555 99.6742 86.7726 94.3526 83.5074L94.3509 83.509ZM91.1671 91.4826C90.2708 93.0899 88.2414 93.6661 86.6341 92.7698C85.8617 92.3391 85.2921 91.6188 85.0512 90.7679C84.8071 89.918 84.914 89.0059 85.3477 88.2355C86.3305 86.6253 87.989 85.5462 89.8593 85.3C90.149 85.2923 90.4358 85.359 90.6923 85.4933C92.0968 86.278 92.1717 89.68 91.1671 91.4826Z" fill="black"/>
</svg>
