<svg width="60" height="60" viewBox="0 0 60 60" fill="none" xmlns="http://www.w3.org/2000/svg">
<g clip-path="url(#clip0)">
<path d="M2.05716 0.213623H43.2004C44.3365 0.213623 45.2576 1.13473 45.2576 2.27079V57.8142C45.2576 58.9502 44.3365 59.8713 43.2004 59.8713H2.05716C0.921102 59.8713 0 58.9502 0 57.8142V2.27079C0 1.13473 0.921102 0.213623 2.05716 0.213623V0.213623Z" fill="#F9F9F9"/>
<path d="M25.7145 51.6427C15.4895 51.6427 7.20007 43.3533 7.20007 33.1282V0.213623H2.05716C0.921102 0.213623 0 1.13473 0 2.27079V57.8142C0 58.9502 0.921102 59.8713 2.05716 59.8713H43.2004C44.3365 59.8713 45.2576 58.9502 45.2576 57.8142V51.6427H25.7145Z" fill="#EBFFE8"/>
<path d="M9.25684 6.38513H35.9999V10.4995H9.25684V6.38513Z" fill="#A9F06A"/>
<path d="M32.9147 15.6426H12.343C11.775 15.6426 11.3145 15.1821 11.3145 14.614C11.3145 14.046 11.775 13.5854 12.343 13.5854H32.9147C33.4827 13.5854 33.9432 14.046 33.9432 14.614C33.9432 15.1821 33.4827 15.6426 32.9147 15.6426Z" fill="#454852"/>
<path d="M39.0861 22.8428H16.4573C15.8893 22.8428 15.4287 22.3823 15.4287 21.8142C15.4287 21.2462 15.8893 20.7856 16.4573 20.7856H39.0861C39.6541 20.7856 40.1147 21.2462 40.1147 21.8142C40.1147 22.3823 39.6541 22.8428 39.0861 22.8428Z" fill="#454852"/>
<path d="M27.7716 29.0139H7.19997C6.63194 29.0139 6.17139 28.5534 6.17139 27.9854C6.17139 27.4173 6.63194 26.9568 7.19997 26.9568H27.7716C28.3396 26.9568 28.8002 27.4173 28.8002 27.9854C28.8002 28.5534 28.3396 29.0139 27.7716 29.0139Z" fill="#454852"/>
<path d="M39.0861 29.0139H31.886C31.318 29.0139 30.8574 28.5534 30.8574 27.9854C30.8574 27.4173 31.318 26.9568 31.886 26.9568H39.0861C39.6541 26.9568 40.1147 27.4173 40.1147 27.9854C40.1147 28.5534 39.6541 29.0139 39.0861 29.0139Z" fill="#454852"/>
<path d="M17.4858 34.1571H7.19997C6.63194 34.1571 6.17139 33.6965 6.17139 33.1285C6.17139 32.5604 6.63194 32.0999 7.19997 32.0999H17.4858C18.0538 32.0999 18.5144 32.5604 18.5144 33.1285C18.5144 33.6965 18.0538 34.1571 17.4858 34.1571Z" fill="#454852"/>
<path d="M28.8004 34.1571H21.6004C21.0323 34.1571 20.5718 33.6965 20.5718 33.1285C20.5718 32.5604 21.0323 32.0999 21.6004 32.0999H28.8004C29.3685 32.0999 29.829 32.5604 29.829 33.1285C29.829 33.6965 29.3685 34.1571 28.8004 34.1571Z" fill="#454852"/>
<path d="M35.9999 10.4995H9.25684V6.38513L35.9999 10.4995Z" fill="#04D36F"/>
<path d="M19.543 48.0429C19.543 52.3033 16.0891 55.7572 11.8286 55.7572C7.56814 55.7572 4.11426 52.3033 4.11426 48.0429C4.11426 43.7824 7.56814 40.3285 11.8286 40.3285C16.0891 40.3285 19.543 43.7824 19.543 48.0429Z" fill="#A9F06A"/>
<path d="M11.8287 55.7571C15.1691 55.7561 18.1292 53.6055 19.1623 50.4289C14.6357 48.7112 10.9613 45.2885 8.92825 40.8939C5.50752 42.2816 3.5493 45.8977 4.25645 49.5203C4.96309 53.143 8.13773 55.7576 11.8287 55.7571Z" fill="#04D36F"/>
<path d="M24.6858 52.6713C24.5738 52.6748 24.4623 52.6578 24.3568 52.6196C23.8214 52.4393 23.5321 51.8602 23.7084 51.3238L26.2387 43.733C26.5485 42.8064 27.4671 42.2258 28.4365 42.3428C29.4063 42.4598 30.1596 43.2428 30.24 44.2162L30.5901 48.3305L30.9602 47.7032C31.3535 47.0171 32.1053 46.6174 32.8938 46.6746C33.6698 46.7394 34.3428 47.2371 34.6321 47.9603L35.2905 49.5856L38.2838 45.7796C38.4536 45.5647 38.7022 45.4266 38.9744 45.3954C39.2466 45.3648 39.5203 45.4436 39.7338 45.6149C40.1752 45.9685 40.2486 46.6113 39.8985 47.0553L36.8951 50.8713C36.4371 51.4433 35.7099 51.7286 34.9851 51.6206C34.2604 51.5127 33.6482 51.0275 33.3775 50.3465L32.7396 48.7318L32.3589 49.3591C31.9109 50.1205 31.027 50.5107 30.1626 50.3289C29.2983 50.1476 28.6464 49.4339 28.5429 48.557L28.1934 44.3809L25.7143 51.9305C25.5822 52.3845 25.1579 52.6899 24.6858 52.6713V52.6713Z" fill="#454852"/>
<path d="M11.5615 50.964C11.0181 50.9645 10.4968 50.7501 10.111 50.3674L7.93033 48.1866C7.73546 47.9938 7.62598 47.7306 7.62598 47.4564C7.62598 47.1822 7.73546 46.9195 7.93033 46.7261C8.33162 46.3274 8.9795 46.3274 9.38079 46.7261L11.5615 48.9068L15.2022 45.2762C15.6105 44.9266 16.2187 44.9502 16.5989 45.3299C16.9786 45.7101 17.0022 46.3183 16.6527 46.7261L13.022 50.3674C12.6338 50.7526 12.1079 50.967 11.5615 50.964V50.964Z" fill="#454852"/>
<path d="M50.8183 20.1949L56.1631 23.2807L46.9058 39.3151L41.561 36.2294L50.8183 20.1949Z" fill="#04D36F"/>
<path d="M46.3892 27.8618L41.5547 36.214L46.9035 39.2998L48.467 36.5741C47.3073 33.8013 46.6057 30.8592 46.3892 27.8618V27.8618Z" fill="#78D228"/>
<path d="M46.9038 39.3206L41.555 36.2349L39.3643 42.0874L42.9231 44.1446L46.9038 39.3206Z" fill="#F0FFCB"/>
<path d="M39.5231 42.2742L43.1025 44.3313L42.0739 46.1208C41.5059 47.1092 40.2443 47.4502 39.2559 46.8822C38.2675 46.3142 37.9265 45.052 38.4945 44.0636L39.5231 42.2742Z" fill="#454852"/>
<path d="M53.8948 14.8544L59.2396 17.9401L56.1539 23.2849L50.8091 20.1992L53.8948 14.8544Z" fill="#04D36F"/>
<path d="M58.6247 12.8351C59.6086 13.4032 59.9456 14.6613 59.3776 15.6451L58.349 17.4266L54.7861 15.3694L55.8147 13.588C56.3828 12.6041 57.6409 12.2666 58.6247 12.8351V12.8351Z" fill="#F7F7F7"/>
<path d="M49.4131 22.6398L50.4417 20.8584L55.7865 23.9441L54.7579 25.7256L49.4131 22.6398Z" fill="#78D228"/>
<path d="M54.5767 35.2778C54.3964 35.2793 54.2191 35.2331 54.0624 35.1442C53.8258 35.0066 53.6541 34.7806 53.5848 34.5164C53.515 34.2522 53.5536 33.971 53.6922 33.7349L57.8066 26.6067C57.9432 26.3701 57.9804 26.0889 57.909 25.8252C57.8382 25.56 57.6645 25.334 57.4259 25.1979L48.5182 20.055C48.0285 19.7723 47.8587 19.1475 48.1375 18.6558C48.2736 18.4177 48.4986 18.244 48.7633 18.1726C49.0275 18.1008 49.3097 18.138 49.5468 18.2756L58.4545 23.4185C59.1636 23.8268 59.6814 24.4998 59.8944 25.2903C60.1073 26.0819 59.9963 26.9256 59.586 27.6353L55.4717 34.7635C55.2869 35.0829 54.9453 35.2793 54.5767 35.2778V35.2778Z" fill="#454852"/>
<path d="M57.6005 13.5854C57.6055 13.2379 57.6543 12.8923 57.7447 12.5569C56.9597 12.5036 56.2128 12.9029 55.8211 13.5854L54.7925 15.3649L58.3514 17.422L58.8657 16.5376C58.0555 15.7697 57.5975 14.7014 57.6005 13.5854Z" fill="#F2F2F2"/>
</g>
<defs>
<clipPath id="clip0">
<rect width="60" height="60" fill="white"/>
</clipPath>
</defs>
</svg>
