<svg width="60" height="60" viewBox="0 0 60 60" fill="none" xmlns="http://www.w3.org/2000/svg">
<g clip-path="url(#clip0)">
<path d="M53.9102 15.2021C53.9234 15.1062 53.9703 15.0158 54.0377 14.9467L56.7951 12.259C57.0604 12.0003 56.914 11.5496 56.5473 11.4964L52.7367 10.9426C52.5911 10.9215 52.4652 10.83 52.4001 10.698L50.696 7.24509C50.5321 6.91277 50.0582 6.91277 49.8942 7.24509L48.1901 10.698C48.125 10.83 47.9992 10.9214 47.8536 10.9426H47.8534L46.565 11.1299L44.36 11.5166C43.9933 11.5696 43.8473 12.0208 44.1127 12.2789L46.7964 14.9104C46.9026 15.0141 46.9508 15.1613 46.9255 15.3072L46.2971 18.6544C46.2355 19.0199 46.6179 19.2985 46.946 19.126L50.0921 17.6272C50.2223 17.5584 50.3779 17.5584 50.5082 17.6272L53.6906 19.3621C54.0187 19.5346 54.4023 19.2559 54.3395 18.8905L54.1164 16.5477L53.9099 15.3428C53.9057 15.2959 53.9 15.2486 53.9102 15.2021V15.2021Z" fill="#FFD064"/>
<path d="M53.9107 19.6094L50.5031 17.8169C50.3729 17.7482 50.2173 17.7482 50.087 17.8169L46.6782 19.6094C46.3501 19.7819 45.9677 19.5032 46.0292 19.1378L46.6806 15.343C46.7059 15.197 46.6577 15.0499 46.5515 14.9461L43.7953 12.2587C43.5299 12.0005 43.6759 11.5494 44.0426 11.4963L46.5648 11.1296C47.5141 14.267 50.4284 16.5516 53.8757 16.5516C53.9566 16.5516 54.0362 16.5504 54.1158 16.548L54.5597 19.1378C54.6224 19.5032 54.2388 19.7819 53.9107 19.6094V19.6094Z" fill="#FFC250"/>
<path d="M13.3194 15.2021C13.3326 15.1062 13.3795 15.0158 13.4469 14.9467L16.2042 12.259C16.4696 12.0003 16.3232 11.5496 15.9565 11.4964L12.1459 10.9426C12.0003 10.9215 11.8744 10.83 11.8092 10.698L10.1052 7.24509C9.94128 6.91277 9.46735 6.91277 9.30343 7.24509L7.59928 10.698C7.53414 10.83 7.40833 10.9214 7.26274 10.9426H7.26262L5.97413 11.1299L3.76916 11.5166C3.40246 11.5696 3.25651 12.0208 3.52188 12.2789L6.20561 14.9104C6.31175 15.0141 6.36 15.1613 6.33467 15.3072L5.70623 18.6544C5.64471 19.0199 6.02708 19.2985 6.35518 19.126L9.50125 17.6272C9.63152 17.5584 9.78712 17.5584 9.91739 17.6272L13.0998 19.3621C13.4279 19.5346 13.8114 19.2559 13.7487 18.8905L13.5256 16.5477L13.3191 15.3428C13.315 15.2959 13.3093 15.2486 13.3194 15.2021V15.2021Z" fill="#FFD064"/>
<path d="M13.3199 19.6094L9.91231 17.8169C9.78204 17.7482 9.62643 17.7482 9.49616 17.8169L6.08737 19.6094C5.75928 19.7819 5.37691 19.5032 5.43842 19.1378L6.08978 15.343C6.11512 15.197 6.06687 15.0499 5.96072 14.9461L3.2045 12.2587C2.93913 12.0005 3.08508 11.5494 3.45177 11.4963L5.97399 11.1296C6.92329 14.267 9.83752 16.5516 13.2849 16.5516C13.3657 16.5516 13.4453 16.5504 13.525 16.548L13.9688 19.1378C14.0316 19.5032 13.648 19.7819 13.3199 19.6094V19.6094Z" fill="#FFC250"/>
<path d="M32.836 32.2879L33.5071 28.691C33.8485 26.8605 33.1542 25.0268 31.7694 23.8815C31.4732 23.6366 31.0022 23.7223 30.6463 23.5471C29.8124 23.1366 29.4012 23.7553 29.1037 24.6392L25.7373 34.7951C24.8152 37.535 23.9019 40.6677 21.3418 41.9897V54.86C21.3418 56.9683 21.761 59.9956 26.6493 59.9956L38.6593 60.0002L44.0197 58.2804V40.0142L38.8951 37.8975H37.4262C34.4502 37.8974 32.2877 35.2271 32.836 32.2879V32.2879Z" fill="#F2D1A5"/>
<path d="M22.6648 54.4629V43.2251C22.6648 42.4331 23.0175 41.6808 23.6318 41.181C25.6486 39.5407 27.177 36.5335 27.9619 34.2009L31.169 24.6701C31.2824 24.333 31.4989 24.0641 31.769 23.8823C31.4727 23.6374 31.1456 23.4231 30.7896 23.2479C29.9558 22.8374 28.9528 23.257 28.6553 24.141L25.4482 33.6717C24.5262 36.4116 22.5789 39.2615 20.0188 40.5834L18.6958 48.9486L20.0188 56.1827C20.0188 58.291 22.1875 59.9956 27.0757 59.9956C27.0758 59.9956 22.596 59.1822 22.6648 54.4629Z" fill="#F2BB88"/>
<path d="M44.8532 59.3383H38.6596C37.262 59.3383 36.9229 58.8669 36.9229 57.4694C36.9229 56.0718 37.262 54.939 38.6596 54.939H38.8546L42.0438 53.616L44.9855 54.939C45.8981 54.939 46.638 55.6789 46.638 56.5915V57.4212C46.638 58.3339 45.7659 59.3383 44.8532 59.3383V59.3383Z" fill="#F2D1A5"/>
<path d="M41.3053 57.3543C39.9467 57.3543 38.8415 56.2828 38.7807 54.9393H38.6593C37.2618 54.9393 36.1289 56.0722 36.1289 57.4697C36.1289 58.8673 37.2618 60.0002 38.6593 60.0002H44.9853C45.8979 60.0002 46.6378 59.2603 46.6378 58.3476V57.3543H41.3053Z" fill="#F2BB88"/>
<path d="M45.0827 54.1455L38.9695 54.2779C37.4008 54.4102 37.0552 52.2566 37.0552 52.0991H36.9229C36.9229 50.5304 37.4008 49.2588 38.9693 49.2588L41.9451 47.9358L46.0087 49.2588C47.1496 49.2588 48.0744 50.1836 48.0744 51.3244V52.3445C48.0744 53.4853 46.2236 54.2779 45.0827 54.1455V54.1455Z" fill="#F2D1A5"/>
<path d="M41.6152 52.293C40.0465 52.293 38.7749 51.0214 38.7749 49.4527C38.7749 49.3903 38.7803 49.3291 38.7842 49.2677C37.3022 49.3635 36.1289 50.5925 36.1289 52.0987C36.1289 53.6674 37.4005 54.939 38.9692 54.939H46.0086C47.1494 54.939 48.0742 54.0142 48.0742 52.8733V52.2932H41.6152V52.293Z" fill="#F2BB88"/>
<path d="M46.7601 48.4649L38.9322 48.5972C37.3635 48.5972 36.8857 47.9871 36.8857 46.4184C36.8857 44.8497 37.3636 43.5781 38.9322 43.5781L42.7951 42.2551L46.1504 43.5781H47.8186C48.9594 43.5781 49.8842 44.5029 49.8842 45.6438V46.6639C49.8842 47.8046 47.901 48.4649 46.7601 48.4649V48.4649Z" fill="#F2D1A5"/>
<path d="M41.5781 46.6125C40.0094 46.6125 38.7378 45.3409 38.7378 43.7722C38.7378 43.7097 38.7431 43.6486 38.7471 43.5872C37.2651 43.6829 36.0918 44.912 36.0918 46.4182C36.0918 47.9869 37.3634 49.2585 38.9321 49.2585H47.8185C48.9593 49.2585 49.8841 48.3336 49.8841 47.1928V46.6126H41.5781V46.6125Z" fill="#F2BB88"/>
<path d="M44.8182 42.9162H38.9695C37.4008 42.9162 37.0552 40.7374 37.0552 40.7374C37.0552 39.1687 37.4008 37.8971 38.9695 37.8971H46.0089C47.1497 37.8971 48.0745 38.8219 48.0745 39.9628V40.9829C48.0745 42.1237 45.959 42.9162 44.8182 42.9162Z" fill="#F2D1A5"/>
<path d="M41.6152 40.9318C40.0465 40.9318 38.7749 39.6602 38.7749 38.0915C38.7749 38.029 38.7803 37.9679 38.7842 37.9065C37.3022 38.0023 36.1289 39.2313 36.1289 40.7375C36.1289 42.3062 37.4005 43.5778 38.9692 43.5778H46.0086C47.1494 43.5778 48.0742 42.653 48.0742 41.5121V40.9319H41.6152V40.9318Z" fill="#F2BB88"/>
<path d="M17.1191 59.1821H15.4873C14.3914 59.1821 14.2868 57.3733 14.2868 56.2773L14.2192 40.7374C14.2192 39.6414 14.3914 37.8971 15.4873 37.8971H18.0345C19.1305 37.8971 20.019 38.7856 20.019 39.8816V58.0155C20.019 59.1114 18.2151 59.1821 17.1191 59.1821V59.1821Z" fill="#88EB32"/>
<path d="M16.8104 57.354C16.445 57.354 16.1489 57.0579 16.1489 56.6925V37.8971H15.4874C14.3914 37.8971 13.5029 38.7856 13.5029 39.8816V58.0155C13.5029 59.1115 14.3914 60 15.4874 60H18.0346C19.1306 60 20.0191 59.1115 20.0191 58.0155V57.354H16.8104Z" fill="#04D36F"/>
<path d="M35.6089 12.7748C35.6246 12.612 35.696 12.4581 35.815 12.3414L40.0954 8.16911C40.5073 7.76756 40.28 7.06795 39.7107 6.9852L33.7953 6.12564C33.5692 6.09284 33.3738 5.95086 33.2727 5.74593L30.6274 0.385706C30.3727 -0.130196 29.6372 -0.130196 29.3825 0.385706L26.737 5.74593C26.6364 5.94978 26.4387 6.09308 26.2147 6.12516L24.3016 6.40332L21.342 7.41184C20.7726 7.49507 20.5446 8.19468 20.9572 8.59515L25.0225 12.4169C25.1866 12.5774 25.2613 12.8066 25.2227 13.0321L23.8585 18.2934C23.762 18.8604 24.3567 19.2934 24.8657 19.0256L29.6767 16.035C29.8794 15.9277 30.1206 15.9277 30.3233 16.035L35.0687 18.7041C35.5777 18.9719 36.1736 18.5389 36.0759 17.972L35.9372 14.834L35.6156 12.9594C35.6065 12.8979 35.6015 12.836 35.6089 12.7748V12.7748Z" fill="#FFD064"/>
<path d="M35.6187 19.5806L30.3282 16.7991C30.1255 16.6917 29.8843 16.6917 29.6816 16.7991L24.3911 19.5806C23.8821 19.8484 23.2874 19.4154 23.3839 18.8484L24.3947 12.9572C24.4333 12.7317 24.3586 12.5025 24.1945 12.3421L19.9147 8.16974C19.5022 7.76927 19.7301 7.06966 20.2995 6.98643L24.3017 6.40503C25.3005 11.2553 29.5935 14.9029 34.7392 14.9029C35.1445 14.9029 35.5438 14.88 35.937 14.8353L36.6258 18.8484C36.7235 19.4154 36.1277 19.8484 35.6187 19.5806Z" fill="#FFC250"/>
</g>
<defs>
<clipPath id="clip0">
<rect width="60" height="60" fill="white"/>
</clipPath>
</defs>
</svg>
