<svg width="36" height="36" viewBox="0 0 36 36" fill="none" xmlns="http://www.w3.org/2000/svg">
<path d="M35.6169 22.3547C34.9322 21.3484 33.5532 21.0821 32.5438 21.7604L27.9496 24.8351L27.9362 15.2648L29.5323 16.76C29.8717 17.0779 30.3142 17.2528 30.7789 17.2528C30.7797 17.2528 30.7807 17.2528 30.7816 17.2528C31.2832 17.2521 31.7675 17.0419 32.1104 16.6759C32.4435 16.3204 32.6182 15.8564 32.6023 15.3695C32.5864 14.8825 32.3818 14.4309 32.0262 14.0978L29.0003 11.2632C28.7932 11.0691 28.468 11.0798 28.274 11.2869C28.08 11.494 28.0906 11.8192 28.2977 12.0132L31.3236 14.8478C31.4788 14.9932 31.5681 15.1904 31.5751 15.4029C31.582 15.6155 31.5058 15.8181 31.3603 15.9732C31.2084 16.1354 31.0024 16.2248 30.7801 16.2251C30.7796 16.2251 30.7793 16.2251 30.7789 16.2251C30.5762 16.2251 30.383 16.1487 30.2349 16.0099C30.2348 16.0099 30.2348 16.0099 30.2348 16.0099L18.2197 4.75431C18.0217 4.56889 17.7135 4.56918 17.516 4.75529L5.53212 16.0445C5.37736 16.1904 5.175 16.2667 4.96237 16.2608C4.74975 16.2545 4.55238 16.1657 4.40655 16.0108C4.26073 15.856 4.18388 15.6537 4.19027 15.4411C4.1966 15.2285 4.28541 15.0311 4.44016 14.8853L17.3198 2.7523C17.6251 2.46465 18.1041 2.46395 18.4101 2.75082L25.9453 9.80964C26.1524 10.0036 26.4776 9.99308 26.6716 9.78594C26.8656 9.5788 26.855 9.25368 26.6479 9.05961L19.1128 2.0008C18.4116 1.3438 17.3145 1.34528 16.6151 2.00425L12.4921 5.88831L12.4909 5.19552C12.4907 4.97713 12.4053 4.77196 12.2507 4.61783C12.0964 4.46392 11.8915 4.37919 11.6735 4.37919C11.6731 4.37919 11.6727 4.37919 11.6723 4.37919L8.7229 4.38334C8.50451 4.38362 8.29941 4.46898 8.14521 4.6236C7.99109 4.77821 7.90629 4.9836 7.90664 5.20206L7.9148 10.2004L3.73549 14.1374C3.38084 14.4714 3.17756 14.9236 3.16301 15.4106C3.14845 15.8976 3.32445 16.3611 3.6585 16.7156C3.99248 17.0702 4.44466 17.2736 4.93172 17.2881C4.95035 17.2887 4.96898 17.289 4.98762 17.289C5.45414 17.289 5.89591 17.1139 6.23686 16.7926L7.82937 15.2924L7.8357 19.8129C7.32045 19.7378 6.79915 19.6985 6.27546 19.6985H5.3962V19.3903C5.3962 18.356 4.55463 17.5144 3.52027 17.5144H1.87594C0.84157 17.5143 0 18.3558 0 19.3903V27.4423C0 27.7261 0.230063 27.9562 0.513844 27.9562C0.797625 27.9562 1.02769 27.7261 1.02769 27.4423V19.3903C1.02769 18.9226 1.40822 18.542 1.87594 18.542H3.5202C3.98791 18.542 4.36845 18.9226 4.36845 19.3903V20.2122V30.7448V31.5586C4.36845 32.0263 3.98791 32.4069 3.5202 32.4069H1.87594C1.40822 32.4069 1.02769 32.0263 1.02769 31.5586V30.6595C1.02769 30.3757 0.797625 30.1456 0.513844 30.1456C0.230063 30.1456 0 30.3757 0 30.6595V31.5586C0 32.593 0.84157 33.4346 1.87594 33.4346H3.5202C4.55456 33.4346 5.39613 32.5931 5.39613 31.5586V31.4888L12.9213 34.3384C12.9352 34.3437 12.9493 34.3484 12.9637 34.3524C13.2908 34.4447 13.6178 34.4911 13.9407 34.4911C14.1154 34.4911 14.2888 34.4775 14.4605 34.4504L25.5194 32.8562C25.522 32.8559 25.5245 32.8555 25.5271 32.8551C26.4673 32.7049 27.3543 32.3075 28.0921 31.7057C28.0985 31.7005 28.1048 31.6951 28.1109 31.6896L35.2555 25.2638C36.0875 24.5252 36.2428 23.2746 35.6169 22.3547ZM11.4635 5.40723L11.4659 6.85496L8.94087 9.23364L8.93461 5.41068L11.4635 5.40723ZM17.8693 5.83431L26.9071 14.3008L26.9228 25.5222L25.468 26.4958L23.9273 26.4094L23.8866 26.0002C23.7433 24.559 22.6793 23.3996 21.2724 23.1229L21.2631 16.4471C21.2624 15.9348 20.8453 15.5184 20.3331 15.5184C20.3327 15.5184 20.3323 15.5184 20.3318 15.5184L15.4343 15.5253C15.1859 15.5257 14.9524 15.6227 14.7771 15.7986C14.6017 15.9745 14.5053 16.2082 14.5056 16.4566L14.5138 22.2771C13.5437 22.0553 12.6174 21.6891 11.7513 21.1825C11.6433 21.1193 11.5341 21.0582 11.4241 20.9989C11.3812 20.9758 11.3376 20.954 11.2944 20.9315C11.2274 20.8965 11.1606 20.8614 11.093 20.8278C11.0391 20.8011 10.9846 20.7758 10.9304 20.75C10.8728 20.7226 10.8153 20.695 10.7572 20.6686C10.6982 20.6418 10.6386 20.6163 10.5791 20.5906C10.5248 20.5671 10.4704 20.5435 10.4157 20.5209C10.3546 20.4957 10.293 20.4714 10.2315 20.4473C10.1768 20.4259 10.1221 20.4047 10.0672 20.3841C10.0062 20.3614 9.945 20.3394 9.88362 20.3178C9.82603 20.2975 9.76838 20.2776 9.71044 20.2583C9.65166 20.2387 9.59273 20.2195 9.53353 20.2008C9.47046 20.1809 9.40711 20.162 9.34369 20.1432C9.2892 20.1272 9.23477 20.1111 9.18 20.0959C9.10849 20.076 9.03663 20.0574 8.9647 20.039C8.93102 20.0303 8.89755 20.0206 8.86366 20.0122L8.85572 14.3255L17.8693 5.83431ZM20.2446 22.9943L15.9467 22.4995L15.5418 22.4529L15.5335 16.5529L20.2356 16.5463L20.2446 22.9943ZM34.5708 24.4976L27.4333 30.917C26.8385 31.3993 26.125 31.7183 25.3688 31.8397L14.3148 33.4331C14.3125 33.4334 14.3102 33.4338 14.3079 33.4341L14.3002 33.4353C13.9653 33.4884 13.6166 33.466 13.2635 33.3691L5.3962 30.3898V20.7261H6.27546C7.02394 20.7261 7.76735 20.8125 8.49129 20.9803C8.51822 20.9866 8.54508 20.993 8.57194 20.9994C8.66088 21.0209 8.74962 21.043 8.83793 21.0669C8.84566 21.069 8.85333 21.0712 8.86106 21.0733C8.94959 21.0975 9.03776 21.1231 9.12565 21.1497C9.1414 21.1545 9.15722 21.1592 9.1729 21.1641C9.26641 21.1929 9.35951 21.2231 9.45211 21.2548C9.46167 21.2581 9.47116 21.2614 9.48073 21.2647C9.67359 21.3313 9.86456 21.404 10.0531 21.4826C10.0634 21.4869 10.0737 21.4911 10.0839 21.4955C10.1779 21.535 10.2714 21.5759 10.3642 21.6183C10.3667 21.6195 10.3692 21.6207 10.3717 21.6219C10.4614 21.6631 10.5505 21.7058 10.639 21.7498C10.6494 21.7549 10.6599 21.76 10.6703 21.7652C10.7568 21.8084 10.8425 21.8532 10.9278 21.899C10.9439 21.9077 10.96 21.9165 10.9761 21.9253C11.0621 21.9722 11.1477 22.02 11.2324 22.0695C12.4552 22.7848 13.7864 23.2481 15.189 23.4466C15.1934 23.4472 15.1978 23.4478 15.2022 23.4483L20.9595 24.1111C20.9913 24.1157 21.0229 24.121 21.0544 24.1269C21.9019 24.2861 22.5709 24.9123 22.7947 25.7279C22.8279 25.8487 22.8512 25.9737 22.864 26.1019L22.8869 26.3318L12.0967 25.3865C11.8142 25.3618 11.5647 25.5708 11.54 25.8535C11.5151 26.1362 11.7243 26.3855 12.007 26.4102L23.4146 27.4097C23.4174 27.4099 23.42 27.4098 23.4227 27.4101C23.4254 27.4103 23.428 27.4107 23.4307 27.4109L25.5821 27.5316C25.5917 27.5322 25.6013 27.5324 25.6108 27.5324C25.621 27.5324 25.6311 27.5308 25.6412 27.5301C25.6527 27.5294 25.6641 27.529 25.6755 27.5276C25.6909 27.5256 25.7058 27.5223 25.7209 27.519C25.7316 27.5166 25.7425 27.5149 25.753 27.5118C25.7695 27.5071 25.7853 27.5007 25.8012 27.4943C25.8098 27.4908 25.8187 27.4882 25.8271 27.4843C25.8511 27.4732 25.8744 27.4604 25.8967 27.4455L27.7228 26.2234C27.7229 26.2233 27.723 26.2232 27.723 26.2232L33.1161 22.6139C33.6587 22.2492 34.3994 22.3923 34.7672 22.9328C35.1034 23.4268 35.02 24.0987 34.5708 24.4976Z" fill="black"/>
</svg>
