<svg width="60" height="60" viewBox="0 0 60 60" fill="none" xmlns="http://www.w3.org/2000/svg">
<g clip-path="url(#clip0)">
<path d="M14.718 33.7275L7.48047 54.2504L14.7622 54.1796L23.7424 33.7275H14.718Z" fill="#88EB32"/>
<path d="M23.7426 33.7275L18.0913 55.323L23.783 59.9998L30.0001 41.8091V33.7275H23.7426Z" fill="#88EB32"/>
<path d="M21.7767 33.7275L14.7622 54.1796L16.6769 54.161L18.0912 55.3231L25.498 33.7275H21.7767Z" fill="white"/>
<path d="M45.2822 33.7275L52.5198 54.2504L45.2381 54.1796L36.2578 33.7275H45.2822Z" fill="#04D36F"/>
<path d="M36.2575 33.7275L41.9088 55.323L36.2172 59.9998L30 41.8091V33.7275H36.2575Z" fill="#04D36F"/>
<path d="M38.2232 33.7275L45.2377 54.1796L43.323 54.161L41.9087 55.3231L34.502 33.7275H38.2232Z" fill="#F0F0F0"/>
<path d="M30.0001 1.76013L28.7485 21.2759L30.0001 40.0486C40.5732 40.0486 49.1443 31.4774 49.1443 20.9044C49.1443 10.3313 40.5732 1.76013 30.0001 1.76013V1.76013Z" fill="white"/>
<path d="M10.856 20.9044C10.856 31.4774 19.4271 40.0486 30.0002 40.0486V1.76013C19.4271 1.76013 10.856 10.3313 10.856 20.9044V20.9044Z" fill="#F9F9F9"/>
<path d="M50.9043 20.9042C50.9043 9.37755 41.5267 0 30.0001 0L28.7485 1.25155L30.0001 3.51988C39.5858 3.51988 47.3844 11.3184 47.3844 20.9042C47.3844 30.4899 39.5858 38.2884 30.0001 38.2884L28.7485 40.0484L30.0001 41.8083C41.5267 41.8083 50.9043 32.4308 50.9043 20.9042V20.9042Z" fill="#FDAE02"/>
<path d="M29.9998 38.2884C20.4141 38.2884 12.6156 30.4899 12.6156 20.9042C12.6156 11.3184 20.4141 3.51988 29.9998 3.51988V0C18.4733 0 9.0957 9.37755 9.0957 20.9042C9.0957 32.4308 18.4733 41.8083 29.9998 41.8083V38.2884Z" fill="#FDCB02"/>
<path d="M40.5205 13.934L35.0408 15.7258L30 11.4615L28.7485 20.0244L30 28.8631H40.5205V13.934Z" fill="#FD9002"/>
<path d="M29.9999 11.4615L24.9592 15.7258L19.4795 13.934V28.8631H29.9999V11.4615Z" fill="#FDAE02"/>
</g>
<defs>
<clipPath id="clip0">
<rect width="60" height="60" fill="white"/>
</clipPath>
</defs>
</svg>
