<svg width="60" height="60" viewBox="0 0 60 60" fill="none" xmlns="http://www.w3.org/2000/svg">
<path d="M52.5 31.875H10.3125C8.75906 31.875 7.5 30.6159 7.5 29.0625H55.3125C55.3125 30.6159 54.0534 31.875 52.5 31.875Z" fill="#E8E5DF"/>
<path d="M14.0625 30H25.3125C27.9009 30 30 27.9009 30 25.3125V22.4372C30 17.8125 26.2922 11.25 25.1878 11.25H14.1872C13.0828 11.25 9.375 17.8125 9.375 22.4372V25.3125C9.375 27.9009 11.4741 30 14.0625 30Z" fill="#FFD064"/>
<path d="M26.972 4.01342L25.0127 4.99311C24.7155 5.14217 24.3545 5.05686 24.1548 4.79061L22.9127 3.13405C22.6614 2.79936 22.172 2.76467 21.8767 3.05999L20.2473 4.68936C19.9511 4.98561 19.4627 4.95092 19.2114 4.6153L18.1005 3.13405C17.8492 2.79936 17.3598 2.76467 17.0645 3.05999L15.1614 4.96311C14.9851 5.13936 14.7264 5.20686 14.4864 5.13842L11.6411 4.32561C11.0551 4.15874 10.5564 4.78124 10.8489 5.31655L14.0626 11.25H25.3127L27.9142 4.8928C28.1598 4.30499 27.542 3.72936 26.972 4.01342V4.01342Z" fill="#FFD064"/>
<path d="M25.3125 30C27.9009 30 30 27.9009 30 25.3125V22.4372C30 17.8125 26.2922 11.25 25.1878 11.25H14.1872C13.5609 11.25 20.1497 11.6541 23.4375 16.875C25.9472 20.8603 25.3125 30 25.3125 30Z" fill="#FFC250"/>
<path d="M26.9721 4.0135L25.6464 4.67631C23.0711 7.26006 19.8349 9.10319 16.277 9.99288L13.7271 10.6304L14.0627 11.2501H25.3127L27.9142 4.89287C28.1599 4.30506 27.5421 3.72944 26.9721 4.0135V4.0135Z" fill="#FFC250"/>
<path d="M27.1875 28.125H15.9375C13.3491 28.125 11.25 26.0259 11.25 23.4375V20.5622C11.25 17.4759 12.9 13.5356 14.3269 11.25H14.1872C13.0828 11.25 9.375 17.8125 9.375 22.4372V25.3125C9.375 27.9009 11.4741 30 14.0625 30H25.3125C27.0909 30 28.6191 28.9978 29.4141 27.5391C28.7484 27.9009 27.9975 28.125 27.1875 28.125Z" fill="#FFC250"/>
<path d="M32.8125 3.75H42.1875V30H32.8125V3.75Z" fill="#FCFCFC"/>
<path d="M42.1875 15L38.4375 18.75L34.6875 22.5H36.5625V30H42.1875V15Z" fill="#EBFFE8"/>
<path d="M27.4687 15H24.375V30H32.8125V15H27.4687Z" fill="#FCFCFC"/>
<path d="M44.0625 25.3125H47.8125V30H44.0625V25.3125Z" fill="#EBFFE8"/>
<path d="M54.1003 28.125C53.1197 28.125 52.2225 28.6791 51.7837 29.5566L51.5625 30L48.75 35.625L42.1875 38.4375C42.1875 36.3666 40.5084 34.6875 38.4375 34.6875H24.9394C19.6941 34.6875 14.58 36.3262 10.3125 39.375V53.4375H32.4431C36.9731 53.4375 41.4112 52.1644 45.2522 49.7634C51.06 46.1344 55.0547 40.2122 56.2444 33.4688L56.6512 31.1644C56.9306 29.5791 55.7109 28.125 54.1003 28.125V28.125Z" fill="#F2D1A5"/>
<path d="M51.5625 22.5H40.3125V30H44.0625V25.3125H47.8125V30H51.5625V22.5Z" fill="#FCFCFC"/>
<path d="M53.4375 22.5L45.9375 15L42.1875 18.75L38.4375 22.5H53.4375Z" fill="#FFC250"/>
<path d="M30 15H32.8125V30H30V15Z" fill="#EBFFE8"/>
<path d="M12.2616 38.1271C11.5969 38.5152 10.9425 38.9249 10.3125 39.3749V53.4374H32.4431L27.1228 52.9452C19.1859 52.2102 12.9994 45.9177 12.2616 38.1271V38.1271Z" fill="#F2BB88"/>
<path d="M21.5625 18.75V17.8125C21.5625 17.295 21.1434 16.875 20.625 16.875H19.6875V15.9375H17.8125V16.875H16.875C16.3566 16.875 15.9375 17.295 15.9375 17.8125V20.625C15.9375 21.1425 16.3566 21.5625 16.875 21.5625H19.6875V22.5H15.9375V23.4375C15.9375 23.955 16.3566 24.375 16.875 24.375H17.8125V25.3125H19.6875V24.375H20.625C21.1434 24.375 21.5625 23.955 21.5625 23.4375V20.625C21.5625 20.1075 21.1434 19.6875 20.625 19.6875H17.8125V18.75H21.5625Z" fill="#FEFEFE"/>
<path d="M38.4375 44.0625H23.4375V42.1875H38.4375C39.9881 42.1875 42.1875 39.9881 42.1875 38.4375L43.125 39.375C43.125 41.9597 41.0222 44.0625 38.4375 44.0625Z" fill="#F2BB88"/>
<path d="M35.625 6.5625H36.5625V8.4375H35.625V6.5625Z" fill="#0F6C00"/>
<path d="M38.4375 6.5625H39.375V8.4375H38.4375V6.5625Z" fill="#0F6C00"/>
<path d="M35.625 10.3125H36.5625V12.1875H35.625V10.3125Z" fill="#0F6C00"/>
<path d="M38.4375 10.3125H39.375V12.1875H38.4375V10.3125Z" fill="#0F6C00"/>
<path d="M35.625 14.0625H36.5625V15.9375H35.625V14.0625Z" fill="#0F6C00"/>
<path d="M38.4375 14.0625H39.375V15.9375H38.4375V14.0625Z" fill="#0F6C00"/>
<path d="M27.1875 17.8125H28.125V19.6875H27.1875V17.8125Z" fill="#0F6C00"/>
<path d="M30 17.8125H30.9375V19.6875H30V17.8125Z" fill="#0F6C00"/>
<path d="M27.1875 21.5625H28.125V23.4375H27.1875V21.5625Z" fill="#0F6C00"/>
<path d="M30 21.5625H30.9375V23.4375H30V21.5625Z" fill="#0F6C00"/>
<path d="M27.1875 25.3125H28.125V27.1875H27.1875V25.3125Z" fill="#0F6C00"/>
<path d="M30 25.3125H30.9375V27.1875H30V25.3125Z" fill="#0F6C00"/>
<path d="M35.625 17.8125H36.5625V19.6875H35.625V17.8125Z" fill="#0F6C00"/>
<path d="M38.4375 17.8125H39.375V19.6875H38.4375V17.8125Z" fill="#0F6C00"/>
<path d="M49.6875 3.75H51.5625V5.625H49.6875V3.75Z" fill="#FEBE07"/>
<path d="M51.5625 1.875H53.4375V3.75H51.5625V1.875Z" fill="#FEBE07"/>
<path d="M53.4375 3.75H55.3125V5.625H53.4375V3.75Z" fill="#FEBE07"/>
<path d="M51.5625 5.625H53.4375V7.5H51.5625V5.625Z" fill="#FEBE07"/>
<path d="M56.25 8.4375H58.125V10.3125H56.25V8.4375Z" fill="#FEBE07"/>
<path d="M49.6875 11.25H51.5625V13.125H49.6875V11.25Z" fill="#FEBE07"/>
<path d="M1.875 10.3125H3.75V12.1875H1.875V10.3125Z" fill="#FEBE07"/>
<path d="M3.75 8.4375H5.625V10.3125H3.75V8.4375Z" fill="#FEBE07"/>
<path d="M5.625 10.3125H7.5V12.1875H5.625V10.3125Z" fill="#FEBE07"/>
<path d="M3.75 12.1875H5.625V14.0625H3.75V12.1875Z" fill="#FEBE07"/>
<path d="M1.875 17.8125H3.75V19.6875H1.875V17.8125Z" fill="#FEBE07"/>
<path d="M5.625 1.875H7.5V3.75H5.625V1.875Z" fill="#FEBE07"/>
<path d="M9.375 34.6875H3.75C3.2325 34.6875 2.8125 35.1075 2.8125 35.625V56.25C2.8125 56.7675 3.2325 57.1875 3.75 57.1875H9.375C9.8925 57.1875 10.3125 56.7675 10.3125 56.25V35.625C10.3125 35.1075 9.8925 34.6875 9.375 34.6875Z" fill="#04D36F"/>
<path d="M6.5625 41.25C6.045 41.25 5.625 40.83 5.625 40.3125V39.375C5.625 38.8575 6.045 38.4375 6.5625 38.4375C7.08 38.4375 7.5 38.8575 7.5 39.375V40.3125C7.5 40.83 7.08 41.25 6.5625 41.25Z" fill="#FEFEFE"/>
</svg>
