<svg width="60" height="60" viewBox="0 0 60 60" fill="none" xmlns="http://www.w3.org/2000/svg">
<path d="M30 60C45.8566 60 58.7109 47.1457 58.7109 31.2891C58.7109 15.4324 45.8566 2.57812 30 2.57812C14.1434 2.57812 1.28906 15.4324 1.28906 31.2891C1.28906 47.1457 14.1434 60 30 60Z" fill="#EBFFE8"/>
<path d="M5.85938 46.8356C7.50152 49.3802 9.5352 51.6478 11.8748 53.5547H48.1252C50.4648 51.6478 52.4985 49.3801 54.1406 46.8356V6.91406H5.85938V46.8356Z" fill="#FDFDFD"/>
<path d="M5.85938 6.91406V46.8356C6.56437 47.9282 7.34203 48.9691 8.18473 49.9529V6.91406H5.85938Z" fill="#ECECEC"/>
<path d="M49.1624 10.4341H10.8384C10.5161 10.4341 10.2524 10.6978 10.2524 11.02V19.0335C10.2524 19.3558 10.5161 19.6195 10.8384 19.6195H20.217C20.7351 14.6786 24.9247 10.8146 30.0003 10.8146C35.0762 10.8146 39.2657 14.6786 39.7837 19.6195H49.1622C49.4845 19.6195 49.7481 19.3558 49.7481 19.0335V11.02C49.7484 10.6978 49.4847 10.4341 49.1624 10.4341Z" fill="#EEF6FF"/>
<path d="M30.0001 15.2676C27.3844 15.2676 25.1992 17.1428 24.7158 19.6193H35.2846C34.8012 17.1428 32.616 15.2676 30.0001 15.2676Z" fill="#EEF6FF"/>
<path d="M49.1624 23.4056H10.8384C10.5161 23.4056 10.2524 23.6693 10.2524 23.9916V26.1599C10.2524 26.4822 10.5161 26.7458 10.8384 26.7458H16.4813C16.7252 26.5172 17.0518 26.376 17.4117 26.376H42.589C42.9487 26.376 43.2755 26.5172 43.5193 26.7458H49.1623C49.4846 26.7458 49.7483 26.4822 49.7483 26.1599V23.9916C49.7484 23.6693 49.4847 23.4056 49.1624 23.4056Z" fill="#EEF6FF"/>
<path d="M16.0492 27.9756H10.8384C10.5161 27.9756 10.2524 28.2393 10.2524 28.5615V30.73C10.2524 31.0522 10.5161 31.3159 10.8384 31.3159H16.0492V27.9756Z" fill="#EEF6FF"/>
<path d="M49.1626 27.9756H43.9517V31.3159H49.1626C49.4849 31.3159 49.7486 31.0522 49.7486 30.73V28.5615C49.7486 28.2393 49.4849 27.9756 49.1626 27.9756Z" fill="#EEF6FF"/>
<path d="M16.0492 32.5457H10.8384C10.5161 32.5457 10.2524 32.8093 10.2524 33.1316V35.2999C10.2524 35.6222 10.5161 35.8858 10.8384 35.8858H16.0492V32.5457Z" fill="#EEF6FF"/>
<path d="M49.1626 32.5457H43.9517V35.8858H49.1626C49.4849 35.8858 49.7486 35.6222 49.7486 35.2999V33.1316C49.7486 32.8093 49.4849 32.5457 49.1626 32.5457Z" fill="#EEF6FF"/>
<path d="M16.0492 37.1157H10.8384C10.5161 37.1157 10.2524 37.3794 10.2524 37.7017V39.87C10.2524 40.1922 10.5161 40.4559 10.8384 40.4559H16.0492V37.1157Z" fill="#EEF6FF"/>
<path d="M49.1626 37.1157H43.9517V40.4559H49.1626C49.4849 40.4559 49.7486 40.1922 49.7486 39.87V37.7017C49.7486 37.3794 49.4849 37.1157 49.1626 37.1157Z" fill="#EEF6FF"/>
<path d="M16.0492 41.686H10.8384C10.5161 41.686 10.2524 41.9497 10.2524 42.272V44.4403C10.2524 44.7626 10.5161 45.0262 10.8384 45.0262H16.0492V41.686Z" fill="#EEF6FF"/>
<path d="M49.1626 41.686H43.9517V45.0262H49.1626C49.4849 45.0262 49.7486 44.7626 49.7486 44.4403V42.272C49.7486 41.9497 49.4849 41.686 49.1626 41.686Z" fill="#EEF6FF"/>
<path d="M49.1624 46.256H43.9515V46.5329C43.9515 47.2842 43.3402 47.8953 42.589 47.8953H17.4117C16.6605 47.8953 16.0492 47.2842 16.0492 46.5329V46.256H10.8384C10.5161 46.256 10.2524 46.5197 10.2524 46.8419V49.0102C10.2524 49.3325 10.5161 49.5962 10.8384 49.5962H49.1623C49.4846 49.5962 49.7483 49.3325 49.7483 49.0102V46.8419C49.7484 46.5197 49.4847 46.256 49.1624 46.256Z" fill="#EEF6FF"/>
<path d="M12.5778 19.0335V11.02C12.5778 10.6978 12.8415 10.4341 13.1637 10.4341H10.8384C10.5161 10.4341 10.2524 10.6978 10.2524 11.02V19.0335C10.2524 19.3558 10.5161 19.6195 10.8384 19.6195H13.1637C12.8415 19.6195 12.5778 19.3558 12.5778 19.0335Z" fill="#D9EAFC"/>
<path d="M12.5778 26.1599V23.9916C12.5778 23.6693 12.8415 23.4056 13.1637 23.4056H10.8384C10.5161 23.4056 10.2524 23.6693 10.2524 23.9916V26.1599C10.2524 26.4822 10.5161 26.7458 10.8384 26.7458H13.1637C12.8415 26.7458 12.5778 26.4822 12.5778 26.1599Z" fill="#D9EAFC"/>
<path d="M12.5778 30.73V28.5615C12.5778 28.2393 12.8415 27.9756 13.1637 27.9756H10.8384C10.5161 27.9756 10.2524 28.2393 10.2524 28.5615V30.73C10.2524 31.0522 10.5161 31.3159 10.8384 31.3159H13.1637C12.8415 31.3159 12.5778 31.0522 12.5778 30.73Z" fill="#D9EAFC"/>
<path d="M12.5778 35.2999V33.1316C12.5778 32.8093 12.8415 32.5457 13.1637 32.5457H10.8384C10.5161 32.5457 10.2524 32.8093 10.2524 33.1316V35.2999C10.2524 35.6222 10.5161 35.8858 10.8384 35.8858H13.1637C12.8415 35.8858 12.5778 35.6222 12.5778 35.2999Z" fill="#D9EAFC"/>
<path d="M12.5778 39.87V37.7017C12.5778 37.3794 12.8415 37.1157 13.1637 37.1157H10.8384C10.5161 37.1157 10.2524 37.3794 10.2524 37.7017V39.87C10.2524 40.1922 10.5161 40.4559 10.8384 40.4559H13.1637C12.8415 40.4559 12.5778 40.1922 12.5778 39.87Z" fill="#D9EAFC"/>
<path d="M12.5778 44.4403V42.272C12.5778 41.9497 12.8415 41.686 13.1637 41.686H10.8384C10.5161 41.686 10.2524 41.9497 10.2524 42.272V44.4403C10.2524 44.7626 10.5161 45.0262 10.8384 45.0262H13.1637C12.8415 45.0262 12.5778 44.7626 12.5778 44.4403Z" fill="#D9EAFC"/>
<path d="M12.5778 49.0102V46.8419C12.5778 46.5197 12.8415 46.256 13.1637 46.256H10.8384C10.5161 46.256 10.2524 46.5197 10.2524 46.8419V49.0102C10.2524 49.3325 10.5161 49.5962 10.8384 49.5962H13.1637C12.8415 49.5962 12.5778 49.3325 12.5778 49.0102Z" fill="#D9EAFC"/>
<path d="M24.7324 26.3758V20.6525C24.7324 17.7479 27.0955 15.3848 30 15.3848C32.9046 15.3848 35.2677 17.7479 35.2677 20.6525V26.3758H39.9552V20.6525C39.9552 15.1632 35.4893 10.6973 30 10.6973C24.5107 10.6973 20.0449 15.1632 20.0449 20.6525V26.3758H24.7324Z" fill="#445EA0"/>
<path d="M22.3703 26.3758V20.6525C22.3703 15.5567 26.2196 11.3453 31.1627 10.7673C30.7809 10.7227 30.3934 10.6971 30 10.6971C24.5107 10.6971 20.0449 15.163 20.0449 20.6523V26.3757L22.3703 26.3758Z" fill="#293D7C"/>
<path d="M44.0683 46.5327C44.0683 47.3464 43.4024 48.0123 42.5887 48.0123H17.4113C16.5975 48.0123 15.9316 47.3464 15.9316 46.5327V27.7382C15.9316 26.9244 16.5975 26.2585 17.4113 26.2585H42.5887C43.4024 26.2585 44.0683 26.9244 44.0683 27.7382V46.5327Z" fill="#04D36F"/>
<path d="M18.257 46.5327V27.7382C18.257 26.9244 18.9229 26.2585 19.7366 26.2585H17.4113C16.5975 26.2585 15.9316 26.9244 15.9316 27.7382V46.5326C15.9316 47.3463 16.5975 48.0122 17.4113 48.0122H19.7366C18.9229 48.0123 18.257 47.3464 18.257 46.5327Z" fill="#15C26E"/>
<path d="M32.811 32.9644C32.811 31.4118 31.5523 30.1532 29.9997 30.1532C28.4472 30.1532 27.1885 31.4119 27.1885 32.9644C27.1885 34.21 27.9988 35.2656 29.1208 35.6348V40.2146C29.1208 40.7 29.5142 41.0935 29.9997 41.0935C30.4852 41.0935 30.8786 40.7 30.8786 40.2146V35.6348C32.0005 35.2657 32.811 34.21 32.811 32.9644Z" fill="#036335"/>
<path d="M15.9316 44.0614V46.5323C15.9316 47.346 16.5975 48.0119 17.4113 48.0119H42.5887C43.4024 48.0119 44.0683 47.346 44.0683 46.5323V44.0614H15.9316Z" fill="#04AF5C"/>
<path d="M52.9688 0H7.03125C6.38672 0 5.85938 0.527344 5.85938 1.17188V7.03125H54.1406V1.17188C54.1406 0.527344 53.6133 0 52.9688 0Z" fill="#5F5F5F"/>
<path d="M9.41662 4.72118C9.16596 4.72118 8.92162 4.61981 8.74455 4.44392C8.56853 4.26673 8.46729 4.02239 8.46729 3.77185C8.46729 3.52235 8.56853 3.27813 8.74455 3.10095C8.92174 2.92364 9.16607 2.82251 9.41662 2.82251C9.666 2.82251 9.91162 2.92376 10.0875 3.10095C10.2648 3.27813 10.3661 3.52235 10.3661 3.77185C10.3661 4.02239 10.2648 4.26673 10.0875 4.44392C9.9115 4.61981 9.66588 4.72118 9.41662 4.72118Z" fill="#E26693"/>
<path d="M12.5295 4.72118C12.2802 4.72118 12.0345 4.61981 11.8585 4.44263C11.6813 4.26673 11.5801 4.02239 11.5801 3.77185C11.5801 3.52235 11.6813 3.27813 11.8585 3.10095C12.0358 2.92364 12.2802 2.82251 12.5295 2.82251C12.7802 2.82251 13.0244 2.92376 13.2017 3.10095C13.3776 3.27813 13.4789 3.52235 13.4789 3.77185C13.4789 4.02122 13.3776 4.26673 13.2017 4.44263C13.0244 4.61981 12.7802 4.72118 12.5295 4.72118Z" fill="#FFAF10"/>
<path d="M15.6443 4.72118C15.3936 4.72118 15.1493 4.61981 14.9734 4.44392C14.7961 4.26673 14.6948 4.02239 14.6948 3.77185C14.6948 3.52235 14.7961 3.27813 14.9734 3.10095C15.1493 2.92364 15.3936 2.82251 15.6443 2.82251C15.8936 2.82251 16.1393 2.92376 16.3152 3.10095C16.4925 3.27813 16.5937 3.52235 16.5937 3.77185C16.5937 4.02239 16.4925 4.26673 16.3152 4.44392C16.138 4.61981 15.8936 4.72118 15.6443 4.72118Z" fill="#37C47A"/>
</svg>
